<svg class="svg-icon" style="width: 1.0546875em;height: 1em;vertical-align: middle;fill: currentColor;overflow: hidden;" viewBox="0 0 1080 1024" version="1.1" xmlns="http://www.w3.org/2000/svg"><path d="M26.547771 1016.459544A26.427948 26.427948 0 0 1 0.000239 989.912013a518.992285 518.992285 0 0 1 831.105157-414.356744 26.786699 26.786699 0 0 1 5.142089 37.190461 26.427948 26.427948 0 0 1-37.070877 5.142089A466.375556 466.375556 0 0 0 52.856135 990.270763 26.308365 26.308365 0 0 1 26.547771 1016.459544z" fill="#444444" /><path d="M514.209185 510.143108a255.071554 255.071554 0 1 1 255.191138-255.071554A255.430304 255.430304 0 0 1 514.209185 510.143108z m0-458.124296a203.291909 203.291909 0 1 0 203.291909 203.291909 203.291909 203.291909 0 0 0-203.291909-203.291909z" fill="#444444" /><path d="M894.245471 1023.993303a182.603968 182.603968 0 1 1 186.071889-182.603967 184.517303 184.517303 0 0 1-186.071889 182.603967z m0-332.561646A149.957679 149.957679 0 1 0 1047.551487 841.389336a151.871014 151.871014 0 0 0-153.306016-149.957679z" fill="#50B3EA" /><path d="M880.373788 707.934177h27.86295v147.326842h-27.86295z" fill="#50B3EA" /><path d="M881.091289 855.380602V827.517653h113.484718v27.862949z" fill="#50B3EA" /><path d="M55.965306 1018.970797m0-25.83003l0 0.119583q0-25.830031 25.830031-25.830031l617.648652 0q25.830031 0 25.830031 25.830031l0-0.119583q0 25.830031-25.830031 25.83003l-617.648652 0q-25.830031 0-25.830031-25.83003Z" fill="#444444" /></svg>