<?xml version="1.0" ?><svg viewBox="0 0 64 64" xmlns="http://www.w3.org/2000/svg"><title/><g data-name="4" id="_4"><path d="M51.55,15H40V4a1,1,0,0,0-1-1H28a1,1,0,0,0-1,1V15H16.45A5.45,5.45,0,0,0,11,20.45V27a1,1,0,0,0,1,1V41.19A20.59,20.59,0,0,1,7.23,54.36a.39.39,0,0,0-.06.11.36.36,0,0,0-.07.1v0a.57.57,0,0,0,0,.14s0,.08,0,.12v.28l0,.12a.88.88,0,0,0,0,.15v0l.06.09a1.05,1.05,0,0,0,.07.11l4,5A1,1,0,0,0,12,61H52l.24,0a.43.43,0,0,0,.12-.05l.14-.06.1-.09a.48.48,0,0,0,.11-.09,1.7,1.7,0,0,0,.1-.14s0-.05.06-.09h0L53.61,59A22.62,22.62,0,0,0,56,48.91V28a1,1,0,0,0,1-1V20.45A5.46,5.46,0,0,0,51.55,15ZM55,20.45V26H53V20.45A5.44,5.44,0,0,0,51.78,17,3.46,3.46,0,0,1,55,20.45ZM38,15H37V5h1ZM29,5h6V15H29ZM13,20.45A3.46,3.46,0,0,1,16.45,17h31.1A3.46,3.46,0,0,1,51,20.45V26H13ZM16,28H50v1H14V28ZM14,41.19V31H50V43.91a20.67,20.67,0,0,1-2.17,9.2l-.45.89H10A22.57,22.57,0,0,0,14,41.19ZM12.48,59l-2.4-3H47.52l2.4,3Zm39.34-.89,0,0-2.62-3.28.44-.87A22.64,22.64,0,0,0,52,43.91V31h2V48.91A20.55,20.55,0,0,1,51.82,58.11ZM54,29H52V28h2Z"/><path d="M42,42a1,1,0,0,0-1.1.9,20.27,20.27,0,0,1-2.08,7.21l-.72,1.45a1,1,0,0,0,.46,1.34A1,1,0,0,0,39,53a1,1,0,0,0,.9-.56L40.61,51a22.3,22.3,0,0,0,2.28-7.9A1,1,0,0,0,42,42Z"/><path d="M42,32a1,1,0,0,0-1,1v6.91a1,1,0,0,0,2,0V33A1,1,0,0,0,42,32Z"/><path d="M22,42a1,1,0,0,0-1.1.9,20.27,20.27,0,0,1-2.08,7.21l-.72,1.45a1,1,0,0,0,.46,1.34A1,1,0,0,0,19,53a1,1,0,0,0,.9-.56L20.61,51a22.3,22.3,0,0,0,2.28-7.9A1,1,0,0,0,22,42Z"/><path d="M22,32a1,1,0,0,0-1,1v6.91a1,1,0,0,0,2,0V33A1,1,0,0,0,22,32Z"/><path d="M32,38a1,1,0,0,0-1,1v1.91a20.55,20.55,0,0,1-2.18,9.2l-.72,1.45a1,1,0,0,0,.46,1.34A1,1,0,0,0,29,53a1,1,0,0,0,.9-.56L30.61,51A22.62,22.62,0,0,0,33,40.91V39A1,1,0,0,0,32,38Z"/><path d="M32,32a1,1,0,0,0-1,1v3a1,1,0,0,0,2,0V33A1,1,0,0,0,32,32Z"/></g></svg>