<?xml version="1.0" ?><svg viewBox="0 0 64 64" xmlns="http://www.w3.org/2000/svg"><g data-name="Layer 3" id="Layer_3"><path d="M55.31,35.24V27.92a4.86,4.86,0,0,0-4.85-4.85H47.72l3.34-3.33a1.05,1.05,0,0,0,.29-.71,1,1,0,0,0-.29-.71L38.13,5.39a1,1,0,0,0-1.42,0L34.3,7.8,24.89,3.1a1.08,1.08,0,0,0-.77-.05,1.06,1.06,0,0,0-.58.5L13.81,23.07h-6A4.86,4.86,0,0,0,3,27.92V56.15A4.86,4.86,0,0,0,7.85,61H50.46a4.86,4.86,0,0,0,4.85-4.85v-9a3.72,3.72,0,0,0,3.59-3.7v-4.5A3.71,3.71,0,0,0,55.31,35.24ZM37.42,7.51,48.94,19l-4,4H41.26l1-.94a1,1,0,0,0,0-1.42,2.37,2.37,0,0,1,0-3.36,1,1,0,0,0,0-1.42L40.5,14.24a1,1,0,0,0-1.41,0,2.36,2.36,0,0,1-3.35,0,1,1,0,0,0-1.42,0L25.5,23.07H21.86ZM28.43,23a3.57,3.57,0,0,1,5,0l.08.1H28.32Zm7.53.1a5.31,5.31,0,0,0-1.07-1.52A5.56,5.56,0,0,0,31.42,20l3.69-3.69a4.4,4.4,0,0,0,4.61,0l.45.44A4.34,4.34,0,0,0,39.51,19a4.29,4.29,0,0,0,.67,2.3l-1.74,1.74ZM23.29,18.81l2.2-4.42a4.39,4.39,0,0,0,2.3-.08Zm1.6-13.47,7.92,3.95-1.92,1.92L30,10.75a1,1,0,0,0-1.35.45,2.36,2.36,0,0,1-3.17,1.06,1,1,0,0,0-1.34.44L18.94,23.07H16.05ZM50.46,59H7.85A2.86,2.86,0,0,1,5,56.15V27.92a2.86,2.86,0,0,1,2.85-2.85H50.46a2.86,2.86,0,0,1,2.85,2.85v7.31H45.85a3,3,0,0,0-3,3v5.91a3,3,0,0,0,3,3h7.46v9A2.86,2.86,0,0,1,50.46,59ZM44.85,40.07h.91a1.12,1.12,0,0,1,0,2.23h-.91Zm12,3.36a1.72,1.72,0,0,1-1.71,1.71H45.85a1,1,0,0,1-1-.84h.88a3.12,3.12,0,0,0,0-6.23h-.88a1,1,0,0,1,1-.84h9.34a1.71,1.71,0,0,1,1.71,1.7Z"/></g></svg>