<?xml version="1.0" ?><svg enable-background="new 0 0 512 512" id="outline" version="1.1" viewBox="0 0 512 512" xml:space="preserve" xmlns="http://www.w3.org/2000/svg" xmlns:xlink="http://www.w3.org/1999/xlink"><g><path d="M507.387,16.074L496.972,5.659c-3.28-3.28-7.816-5.042-12.453-4.848c-4.634,0.199-9.004,2.348-11.991,5.897   L368.406,130.414c-6.025,7.158-13.324,12.91-21.692,17.094l-76.909,38.454c-15.695,7.847-29.229,19.651-39.14,34.134l-31.138,45.51   l-4.851-4.851c-1.742-1.742-4.189-2.588-6.634-2.283c-2.445,0.301-4.615,1.711-5.882,3.824l-13.706,22.843   c-1.873-2.049-4.326-3.537-7.142-4.202c-4.784-1.13-9.718,0.271-13.194,3.749l-13.009,13.009c-1.835,1.835-3.081,4.075-3.694,6.473   c-10.892-1.061-22.144,1.454-32.021,7.739L3.705,372.8c-2.047,1.303-3.393,3.464-3.657,5.876s0.58,4.814,2.295,6.53l73.539,73.539   c2.595,2.596,6.624,3.091,9.773,1.203l9.74-5.844l-4.475,13.425c-0.958,2.875-0.21,6.044,1.933,8.187l33.941,33.941   c1.508,1.508,3.547,2.343,5.656,2.343c0.29,0,0.582-0.016,0.874-0.048c2.412-0.265,4.574-1.61,5.876-3.657l60.894-95.689   c6.287-9.88,8.754-21.125,7.671-32.014c2.423-0.607,4.689-1.849,6.54-3.701l13.009-13.009c3.477-3.477,4.878-8.409,3.749-13.194   c-0.665-2.816-2.153-5.269-4.202-7.142l22.843-13.706c2.112-1.268,3.523-3.438,3.824-5.882c0.301-2.445-0.541-4.893-2.283-6.634   l-17.579-17.579l32.832-47.986c8.378-12.245,19.821-22.224,33.09-28.859l76.909-38.454c10.331-5.166,19.34-12.265,26.778-21.102   L508.35,38.506C513.944,31.86,513.53,22.216,507.387,16.074z M186.595,404.016l-55.539,87.275l-23.393-23.393l9.75-29.251   c1.059-3.176,0.028-6.675-2.583-8.77c-2.612-2.096-6.251-2.342-9.122-0.62l-22.928,13.757l-62.07-62.07l87.275-55.539   c8.233-5.239,17.863-6.636,26.74-4.444c9.654,25.924,30.363,46.639,56.283,56.302C193.212,386.144,191.838,395.776,186.595,404.016   z M203.829,364.74l-4.647-1.549c-23.656-7.885-42.487-26.716-50.372-50.372l-1.549-4.647l10.019-10.018   c9.651,26.081,30.487,46.917,56.568,56.568L203.829,364.74z M209.549,335.275c-13.906-7.442-25.381-18.917-32.823-32.823   l13.883-23.137l42.078,42.078L209.549,335.275z M496.108,28.203L391.033,153.042c-6.025,7.158-13.323,12.91-21.692,17.094   l-76.909,38.454c-15.695,7.847-29.229,19.651-39.14,34.134l-31.138,45.51l-11.117-11.116l32.832-47.986   c8.378-12.245,19.82-22.224,33.09-28.859l76.909-38.454c10.331-5.166,19.34-12.265,26.778-21.102L484.77,17.01   c0.042-0.05,0.171-0.203,0.436-0.214c0.01,0,0.02,0,0.03,0c0.246,0,0.378,0.132,0.423,0.177l10.415,10.415   C496.293,27.607,496.309,27.966,496.108,28.203z"/><path d="M143.764,368.236c-3.124-3.124-8.189-3.124-11.313,0l-28.284,28.284c-3.125,3.124-3.125,8.189,0,11.313   c1.562,1.562,3.609,2.343,5.657,2.343s4.095-0.781,5.657-2.343l28.284-28.284C146.889,376.425,146.889,371.36,143.764,368.236z"/><path d="M121.795,346.354c-2.712-3.488-7.739-4.114-11.227-1.403l-50.912,39.598c-3.487,2.712-4.116,7.739-1.403,11.227   c1.577,2.028,3.937,3.089,6.32,3.089c1.717,0,3.446-0.55,4.906-1.686l50.912-39.598   C123.879,354.868,124.508,349.841,121.795,346.354z"/><path d="M165.172,389.863c-3.675-2.452-8.643-1.458-11.094,2.219l-22.627,33.941c-2.451,3.676-1.458,8.643,2.219,11.094   c1.364,0.91,2.905,1.345,4.43,1.345c2.585,0,5.122-1.251,6.664-3.563l22.627-33.941   C169.842,397.281,168.849,392.314,165.172,389.863z"/><path d="M48,72c17.645,0,32,14.355,32,32c0,4.418,3.582,8,8,8s8-3.582,8-8c0-17.645,14.355-32,32-32c4.418,0,8-3.582,8-8   s-3.582-8-8-8c-17.645,0-32-14.355-32-32c0-4.418-3.582-8-8-8s-8,3.582-8,8c0,17.645-14.355,32-32,32c-4.418,0-8,3.582-8,8   S43.582,72,48,72z M88,50.507c3.553,5.344,8.148,9.939,13.493,13.493C96.148,67.553,91.553,72.148,88,77.493   C84.447,72.148,79.852,67.553,74.507,64C79.852,60.447,84.447,55.852,88,50.507z"/><path d="M224,96c17.645,0,32,14.355,32,32c0,4.418,3.582,8,8,8s8-3.582,8-8c0-17.645,14.355-32,32-32c4.418,0,8-3.582,8-8   s-3.582-8-8-8c-17.645,0-32-14.355-32-32c0-4.418-3.582-8-8-8s-8,3.582-8,8c0,17.645-14.355,32-32,32c-4.418,0-8,3.582-8,8   S219.582,96,224,96z M264,74.507c3.553,5.344,8.148,9.939,13.493,13.493c-5.344,3.553-9.939,8.148-13.493,13.493   c-3.553-5.344-8.148-9.939-13.493-13.493C255.852,84.447,260.447,79.852,264,74.507z"/><path d="M416,296c0,4.418,3.582,8,8,8s8-3.582,8-8c0-17.645,14.355-32,32-32c4.418,0,8-3.582,8-8s-3.582-8-8-8   c-17.645,0-32-14.355-32-32c0-4.418-3.582-8-8-8s-8,3.582-8,8c0,17.645-14.355,32-32,32c-4.418,0-8,3.582-8,8s3.582,8,8,8   C401.645,264,416,278.355,416,296z M424,242.507c3.553,5.344,8.148,9.939,13.493,13.493c-5.344,3.553-9.939,8.148-13.493,13.493   c-3.553-5.344-8.148-9.939-13.493-13.493C415.852,252.447,420.447,247.852,424,242.507z"/><path d="M104,176c0-4.418-3.582-8-8-8s-8,3.582-8,8c0,17.645-14.355,32-32,32c-4.418,0-8,3.582-8,8s3.582,8,8,8   c17.645,0,32,14.355,32,32c0,4.418,3.582,8,8,8s8-3.582,8-8c0-17.645,14.355-32,32-32c4.418,0,8-3.582,8-8s-3.582-8-8-8   C118.355,208,104,193.645,104,176z M96,229.493c-3.553-5.344-8.148-9.939-13.493-13.493c5.344-3.553,9.939-8.148,13.493-13.493   c3.553,5.344,8.148,9.939,13.493,13.493C104.148,219.553,99.553,224.148,96,229.493z"/><path d="M360,352c-17.645,0-32-14.355-32-32c0-4.418-3.582-8-8-8s-8,3.582-8,8c0,17.645-14.355,32-32,32c-4.418,0-8,3.582-8,8   s3.582,8,8,8c17.645,0,32,14.355,32,32c0,4.418,3.582,8,8,8s8-3.582,8-8c0-17.645,14.355-32,32-32c4.418,0,8-3.582,8-8   S364.418,352,360,352z M320,373.493c-3.553-5.344-8.148-9.939-13.493-13.493c5.344-3.553,9.939-8.148,13.493-13.493   c3.553,5.344,8.148,9.939,13.493,13.493C328.148,363.553,323.553,368.148,320,373.493z"/><path d="M480,432c-17.645,0-32-14.355-32-32c0-4.418-3.582-8-8-8s-8,3.582-8,8c0,17.645-14.355,32-32,32c-4.418,0-8,3.582-8,8   s3.582,8,8,8c17.645,0,32,14.355,32,32c0,4.418,3.582,8,8,8s8-3.582,8-8c0-17.645,14.355-32,32-32c4.418,0,8-3.582,8-8   S484.418,432,480,432z M440,453.493c-3.553-5.344-8.148-9.939-13.493-13.493c5.344-3.553,9.939-8.148,13.493-13.493   c3.553,5.344,8.148,9.939,13.493,13.493C448.148,443.553,443.553,448.148,440,453.493z"/></g></svg>