<svg class="svg-icon" style="width: 1em; height: 1em;vertical-align: middle;fill: currentColor;overflow: hidden;" viewBox="0 0 1024 1024" version="1.1" xmlns="http://www.w3.org/2000/svg"><path d="M399.36 526.336c-79.872-40.96-135.168-122.88-135.168-219.136 0-135.168 110.592-245.76 245.76-245.76s245.76 110.592 245.76 245.76c0 96.256-55.296 178.176-135.168 219.136 28.672 8.192 57.344 18.432 86.016 32.768 10.24 6.144 14.336 18.432 8.192 26.624s-18.432 14.336-26.624 8.192c-55.296-28.672-114.688-43.008-178.176-43.008-215.04 0-389.12 174.08-389.12 389.12 0 12.288-8.192 20.48-20.48 20.48s-20.48-8.192-20.48-20.48c0-196.608 135.168-364.544 319.488-413.696z m335.872 219.136V593.92c0-12.288 10.24-22.528 22.528-22.528s22.528 10.24 22.528 22.528v151.552h155.648c12.288 0 22.528 10.24 22.528 22.528 0 12.288-10.24 22.528-22.528 22.528h-155.648v143.36c0 12.288-10.24 22.528-22.528 22.528s-22.528-10.24-22.528-22.528v-143.36h-141.312c-12.288 0-22.528-10.24-22.528-22.528 0-12.288 10.24-22.528 22.528-22.528h141.312z m-225.28-233.472c112.64 0 204.8-92.16 204.8-204.8s-92.16-204.8-204.8-204.8-204.8 92.16-204.8 204.8 92.16 204.8 204.8 204.8z"  /></svg>