<svg class="svg-icon" style="width: 1em;height: 1em;vertical-align: middle;fill: currentColor;overflow: hidden;" viewBox="0 0 1024 1024" version="1.1" xmlns="http://www.w3.org/2000/svg"><path d="M588.32 768a15.04 15.04 0 0 1-10.08-3.84 16 16 0 0 1-5.44-12.16 16 16 0 0 1 5.6-12.32 16 16 0 0 1 12.64-3.84A16 16 0 0 1 608 752a16 16 0 0 1-14.72 16h-4.96zM576.8 867.84a16 16 0 0 1-14.08-23.68 18.4 18.4 0 0 0 1.92-4 16 16 0 0 1 8.8-9.44 16 16 0 0 1 12.96 0A12.48 12.48 0 0 0 592 832a16 16 0 0 1 0 32 16 16 0 0 0-7.68 1.92 16 16 0 0 1-7.52 1.92zM272.8 816H208a16 16 0 0 1-16-16 48 48 0 0 0-48-48 16 16 0 0 1-16-16V480a16 16 0 0 1 16-16 48 48 0 0 0 48-48 16 16 0 0 1 16-16h608a16 16 0 0 1 16 16 48 48 0 0 0 48 48 16 16 0 0 1 16 16v112a16 16 0 0 1-32 0 16 16 0 0 0-16-16H592a16 16 0 0 0-16 16v32a16 16 0 0 0 16 16 16 16 0 0 1 0 32 16 16 0 0 0-16 16 16 16 0 0 1-28.8 9.6A143.04 143.04 0 0 0 432 640a140.8 140.8 0 0 0-27.52 2.56 144 144 0 0 0-115.68 156 16 16 0 0 1-16 17.44z m-50.4-32H256a176 176 0 0 1 142.4-172.8A178.56 178.56 0 0 1 432 608a174.72 174.72 0 0 1 122.72 49.76l1.6-1.76a48 48 0 0 1-12.32-32v-32a48 48 0 0 1 48-48h256a48 48 0 0 1 16 2.72V494.4a80 80 0 0 1-62.4-62.4H222.4a80 80 0 0 1-62.4 62.4v227.2a80 80 0 0 1 62.4 62.4z"  /><path d="M880 704a16 16 0 0 1-16-16 16 16 0 0 0-16-16 16 16 0 0 1 0-32 16 16 0 0 0 16-16 16 16 0 0 1 32 0v64a16 16 0 0 1-16 16zM588.32 768a15.04 15.04 0 0 1-10.08-3.84 16 16 0 0 1-5.44-12.16 16 16 0 0 1 5.6-12.32 16 16 0 0 1 12.64-3.84A16 16 0 0 1 608 752a16 16 0 0 1-14.72 16h-4.96z"  /><path d="M272.8 816H208a16 16 0 0 1-16-16 48 48 0 0 0-48-48 16 16 0 0 1-16-16V480a16 16 0 0 1 16-16 48 48 0 0 0 48-48 16 16 0 0 1 16-16h608a16 16 0 0 1 16 16 48 48 0 0 0 48 48 16 16 0 0 1 16 16v112a16 16 0 0 1-32 0 16 16 0 0 0-16-16H592a16 16 0 0 0-16 16v32a16 16 0 0 0 16 16 16 16 0 0 1 0 32 16 16 0 0 0-16 16 16 16 0 0 1-28.8 9.6A143.04 143.04 0 0 0 432 640a140.8 140.8 0 0 0-27.52 2.56 144 144 0 0 0-115.68 156 16 16 0 0 1-16 17.44z m-50.4-32H256a176 176 0 0 1 142.4-172.8A178.56 178.56 0 0 1 432 608a174.72 174.72 0 0 1 122.72 49.76l1.6-1.76a48 48 0 0 1-12.32-32v-32a48 48 0 0 1 48-48h256a48 48 0 0 1 16 2.72V494.4a80 80 0 0 1-62.4-62.4H222.4a80 80 0 0 1-62.4 62.4v227.2a80 80 0 0 1 62.4 62.4z"  /><path d="M880 704a16 16 0 0 1-16-16 16 16 0 0 0-16-16 16 16 0 0 1 0-32 16 16 0 0 0 16-16 16 16 0 0 1 32 0v64a16 16 0 0 1-16 16zM560 704a16 16 0 0 1-12.8-6.4A143.04 143.04 0 0 0 432 640a140.8 140.8 0 0 0-27.52 2.56 16 16 0 0 1-12.16-2.56 16 16 0 0 1-6.72-10.72A133.28 133.28 0 0 1 384 608c0-80 57.44-144 128-144a128 128 0 0 1 118.88 90.72 16 16 0 0 1-15.04 21.28H592a16 16 0 0 0-16 16v32a16 16 0 0 0 16 16 16 16 0 0 1 0 32 16 16 0 0 0-16 16 16 16 0 0 1-10.88 16 19.04 19.04 0 0 1-5.12 0z m-128-96a174.72 174.72 0 0 1 122.72 49.76l1.6-1.76a48 48 0 0 1-12.32-32v-32a48 48 0 0 1 46.88-48A92.48 92.48 0 0 0 512 496c-52.96 0-96 50.24-96 112h16z"  /><path d="M432 960a176.96 176.96 0 0 1-152.48-88 176 176 0 0 1-22.72-70.4c0-5.92-0.8-11.68-0.8-17.6a176 176 0 0 1 142.4-172.8A178.56 178.56 0 0 1 432 608a174.72 174.72 0 0 1 140.8 70.4l3.2 4.48a156.16 156.16 0 0 1 13.92 23.52 179.36 179.36 0 0 1 14.56 42.08v2.08A180.8 180.8 0 0 1 608 784v17.44a174.4 174.4 0 0 1-12.8 50.24c0 2.08-2.08 4.96-3.52 7.84a105.6 105.6 0 0 1-6.56 12.48 139.68 139.68 0 0 1-8.32 13.12l-3.2 4.32A174.72 174.72 0 0 1 432 960z m0-320a140.8 140.8 0 0 0-27.52 2.56 144 144 0 0 0-115.68 156 141.92 141.92 0 0 0 18.56 57.44A144 144 0 0 0 544 874.08l3.04-4a107.04 107.04 0 0 0 9.28-14.08 99.84 99.84 0 0 0 5.6-10.88 26.72 26.72 0 0 0 2.4-4.96A142.24 142.24 0 0 0 576 798.4V784a144 144 0 0 0-2.88-28.64v-1.76a146.56 146.56 0 0 0-12-33.6 132.48 132.48 0 0 0-13.92-22.56l-3.2-4.32A142.88 142.88 0 0 0 432 640z"  /><path d="M432 896a110.08 110.08 0 0 1-61.92-18.72 112 112 0 0 1-48-74.72A114.56 114.56 0 0 1 320 784a112 112 0 0 1 103.68-112H432a112 112 0 0 1 96 55.84A109.92 109.92 0 0 1 544 784a119.84 119.84 0 0 1-1.6 18.72 112 112 0 0 1-48 74.56A109.28 109.28 0 0 1 432 896z m0-192h-6.08A80 80 0 0 0 352 784a70.24 70.24 0 0 0 1.12 13.12 80 80 0 0 0 34.72 53.6 81.12 81.12 0 0 0 88.16 0 79.04 79.04 0 0 0 34.72-53.28A70.24 70.24 0 0 0 512 784a78.4 78.4 0 0 0-10.72-40A80 80 0 0 0 432 704z"  /><path d="M432 896a110.08 110.08 0 0 1-61.92-18.72 112 112 0 0 1-48-74.72A114.56 114.56 0 0 1 320 784a112 112 0 0 1 103.68-112H432a112 112 0 0 1 96 55.84A109.92 109.92 0 0 1 544 784a104.96 104.96 0 0 1-1.76 18.88 110.4 110.4 0 0 1-48 74.4A109.28 109.28 0 0 1 432 896z m0-192h-6.08A80 80 0 0 0 352 784a70.24 70.24 0 0 0 1.12 13.12 80 80 0 0 0 34.72 53.6 81.12 81.12 0 0 0 88.16 0 79.04 79.04 0 0 0 34.72-53.28A64 64 0 0 0 512 784a78.4 78.4 0 0 0-10.72-40A80 80 0 0 0 432 704zM848 960H592a48 48 0 0 1-48-48v-32a16 16 0 0 1 3.36-9.76 107.04 107.04 0 0 0 9.28-14.08 99.84 99.84 0 0 0 5.6-10.88 16 16 0 0 1 7.04-7.36A47.04 47.04 0 0 1 592 832h256a48 48 0 0 1 41.44 24A46.72 46.72 0 0 1 896 880v32a48 48 0 0 1-48 48z m-272-74.88V912a16 16 0 0 0 16 16h256a16 16 0 0 0 16-16v-32a16 16 0 0 0-2.08-7.84A16 16 0 0 0 848 864H592a13.28 13.28 0 0 0-3.52 0c-1.28 2.56-2.72 5.12-4.16 7.52a139.68 139.68 0 0 1-8.32 13.6z"  /><path d="M848 864H592a44.16 44.16 0 0 1-19.04-4 16 16 0 0 1-8-20.8A137.92 137.92 0 0 0 576 798.4V784a144 144 0 0 0-2.88-28.64 16 16 0 0 1 2.56-12.32 16 16 0 0 1 10.56-6.72A32.96 32.96 0 0 1 592 736h256a48 48 0 0 1 48 48v32a48 48 0 0 1-48 48z m-246.72-32H848a16 16 0 0 0 16-16v-32a16 16 0 0 0-16-16H608v33.44a172.16 172.16 0 0 1-6.72 30.56z"  /><path d="M848 768H592a32.96 32.96 0 0 1-5.76 0 16 16 0 0 1-13.12-12.48 142.72 142.72 0 0 0-12-35.52 132.48 132.48 0 0 0-13.92-22.56A16 16 0 0 1 544 688a48 48 0 0 1 48-48h256a48 48 0 0 1 48 48v32a46.4 46.4 0 0 1-6.72 24.32A48 48 0 0 1 848 768z m-272-84.32a158.08 158.08 0 0 1 13.28 22.72 168.96 168.96 0 0 1 12 29.6H848a16 16 0 0 0 13.6-7.84A14.24 14.24 0 0 0 864 720v-32a16 16 0 0 0-16-16H592a16 16 0 0 0-16 11.68z"  /><path d="M848 672H592a48 48 0 0 1-48-48v-32a48 48 0 0 1 48-48h256a48 48 0 0 1 48 48v32a48 48 0 0 1-48 48z m-256-96a16 16 0 0 0-16 16v32a16 16 0 0 0 16 16h256a16 16 0 0 0 16-16v-32a16 16 0 0 0-16-16z"  /><path d="M880 880h-4.32a16 16 0 0 1-13.76-8A16 16 0 0 0 848 864a16 16 0 0 1 0-32 16 16 0 0 0 16-16v-32a16 16 0 0 0-16-16 16 16 0 0 1 0-32 16 16 0 0 0 13.6-7.84A14.24 14.24 0 0 0 864 720V494.4a80 80 0 0 1-62.4-62.4H222.4a80 80 0 0 1-62.4 62.4v227.2a80 80 0 0 1 62.4 62.4h50.4a16 16 0 0 1 16 14.4 141.76 141.76 0 0 0 18.56 57.6 16 16 0 0 1 0 16 16 16 0 0 1-13.92 8H144a73.12 73.12 0 0 1-21.44-3.04A80 80 0 0 1 64 800V416a80 80 0 0 1 80-80h736a73.12 73.12 0 0 1 21.44 3.04A80 80 0 0 1 960 416v384a80 80 0 0 1-80 80zM144 368a48 48 0 0 0-48 48v384a48 48 0 0 0 35.2 46.08A44.32 44.32 0 0 0 144 848h124a186.88 186.88 0 0 1-9.12-32H208a16 16 0 0 1-16-16 48 48 0 0 0-48-48 16 16 0 0 1-16-16V480a16 16 0 0 1 16-16 48 48 0 0 0 48-48 16 16 0 0 1 16-16h608a16 16 0 0 1 16 16 48 48 0 0 0 48 48 16 16 0 0 1 16 16v240a46.4 46.4 0 0 1-6.72 24.32 44.96 44.96 0 0 1-5.6 7.68 48 48 0 0 1 12.32 32v32a48 48 0 0 1-12.16 32A48 48 0 0 0 928 800V416a48 48 0 0 0-35.2-46.08A44.32 44.32 0 0 0 880 368z"  /><path d="M864 368h-74.24a16 16 0 0 1-13.92-8L704 235.52a80 80 0 0 1-85.28-22.88l-265.44 153.28a16.96 16.96 0 0 1-8 2.08h-128a16 16 0 0 1-16-11.84 16 16 0 0 1 7.52-18.08L638.72 90.24a80 80 0 0 1 109.28 29.28l129.44 224a16 16 0 0 1 0 16A16 16 0 0 1 864 368z m-64-32h36.8L720 135.52a48 48 0 0 0-65.44-17.44L277.12 336h64l274.24-158.4a16.96 16.96 0 0 1 12.16-1.6 16 16 0 0 1 9.76 7.52 35.2 35.2 0 0 0 3.04 4.8 48 48 0 0 0 62.56 12.8 16 16 0 0 1 21.92 5.92z"  /><path d="M789.76 368H345.28a16 16 0 0 1-16-11.84 16 16 0 0 1 7.52-18.08l277.92-160a16.96 16.96 0 0 1 12.16-1.6 16 16 0 0 1 9.76 7.52 35.2 35.2 0 0 0 3.04 4.8 48 48 0 0 0 62.56 12.8 16 16 0 0 1 21.92 5.92l79.04 136.96a16 16 0 0 1 0 16 16 16 0 0 1-13.44 7.52z m-384-32h356.32L704 235.52a80 80 0 0 1-85.28-22.88z"  /></svg>