<svg class="svg-icon" style="width: 1em;height: 1em;vertical-align: middle;fill: currentColor;overflow: hidden;" viewBox="0 0 1024 1024" version="1.1" xmlns="http://www.w3.org/2000/svg"><path d="M939.2 946.4H84.8c-11.2 0-20.8-9.6-20.8-20.8v-54.4c0-11.2 9.6-20.8 20.8-20.8h853.6c11.2 0 20.8 9.6 20.8 20.8v54.4c0.8 12-8.8 20.8-20 20.8z m-854.4-80c-2.4 0-4.8 2.4-4.8 4.8v54.4c0 2.4 2.4 4.8 4.8 4.8h853.6c2.4 0 4.8-2.4 4.8-4.8v-54.4c0-2.4-2.4-4.8-4.8-4.8H84.8zM844 829.6h-32c-17.6 0-32-14.4-32-32V332c0-17.6 14.4-32 32-32h32c17.6 0 32 14.4 32 32v465.6c0 17.6-14.4 32-32 32z m-32-513.6c-8.8 0-16 7.2-16 16v465.6c0 8.8 7.2 16 16 16h32c8.8 0 16-7.2 16-16V332c0-8.8-7.2-16-16-16h-32zM641.6 829.6h-32c-17.6 0-32-14.4-32-32V425.6c0-17.6 14.4-32 32-32h32c17.6 0 32 14.4 32 32v372c0 17.6-14.4 32-32 32z m-32-420c-8.8 0-16 7.2-16 16v372c0 8.8 7.2 16 16 16h32c8.8 0 16-7.2 16-16V425.6c0-8.8-7.2-16-16-16h-32zM439.2 829.6h-32c-17.6 0-32-14.4-32-32V512c0-17.6 14.4-32 32-32h32c17.6 0 32 14.4 32 32v285.6c0 17.6-14.4 32-32 32z m-32-333.6c-8.8 0-16 7.2-16 16v285.6c0 8.8 7.2 16 16 16h32c8.8 0 16-7.2 16-16V512c0-8.8-7.2-16-16-16h-32zM237.6 829.6h-32c-17.6 0-32-14.4-32-32V452c0-17.6 14.4-32 32-32h32c17.6 0 32 14.4 32 32v345.6c0 17.6-14.4 32-32 32z m-32-393.6c-8.8 0-16 7.2-16 16v345.6c0 8.8 7.2 16 16 16h32c8.8 0 16-7.2 16-16V452c0-8.8-7.2-16-16-16h-32zM360.8 366.4c-8 0-12-0.8-19.2-4.8l2.4-16.8c8 4.8 19.2 7.2 27.2 3.2l363.2-176.8 7.2 14.4-362.4 176c-5.6 3.2-12 4.8-18.4 4.8zM360 280l-5.6-14.4 345.6-167.2 7.2 14.4z" fill="#666666" /><path d="M341.6 361.6l-1.6-0.8-171.2-90.4c-5.6-3.2-10.4-8-12-14.4s-1.6-12.8 1.6-19.2l21.6-40.8c6.4-12 21.6-16.8 33.6-10.4l153.6 80.8L360 280 206.4 199.2c-4-2.4-9.6-0.8-12 4l-21.6 40.8c-0.8 2.4-1.6 4.8-0.8 7.2 0.8 2.4 2.4 4 4.8 5.6l172 90.4-4 7.2-3.2 7.2zM771.2 222.4s-0.8 0 0 0c-12.8 0-23.2-7.2-28.8-17.6L728 174.4l14.4-7.2 3.2 7.2 11.2 23.2c2.4 5.6 8 8.8 14.4 8.8 5.6 0 11.2-3.2 14.4-8l62.4-113.6c2.4-4.8 2.4-9.6 0-14.4-2.4-4.8-6.4-8-12-8.8L708.8 40.8c-5.6-0.8-12 1.6-15.2 6.4-4 4.8-4 11.2-1.6 16.8l19.2 39.2 4 7.2-14.4 7.2-22.4-46.4c-6.4-11.2-5.6-24 1.6-33.6 7.2-9.6 19.2-14.4 31.2-12.8l127.2 20.8c10.4 1.6 19.2 8 24 17.6s4 20-0.8 29.6l-62.4 113.6c-5.6 9.6-16 16-28 16z" fill="#666666" /></svg>