<svg class="svg-icon" style="width: 1em; height: 1em;vertical-align: middle;fill: currentColor;overflow: hidden;" viewBox="0 0 1024 1024" version="1.1" xmlns="http://www.w3.org/2000/svg"><path d="M995.575172 726.686897c-12.358621-26.835862-38.488276-64.794483-92.689655-94.278621-55.613793-30.190345-102.576552-29.66069-185.908965-29.66069H510.234483l-195.442759-88.275862H22.775172v489.401379h509.704828L964.855172 808.606897c15.006897-6.708966 26.835862-19.42069 32.662069-34.957242 5.649655-15.36 4.943448-32.132414-1.942069-46.962758z m-482.162758 188.910344H111.051034V602.747586h184.673104l166.664828 75.387586-3.354483 0.882759h-170.372414v88.275862H471.393103l246.819311-70.267586c49.434483-14.124138 101.517241-9.357241 142.653793 12.888276 18.184828 9.886897 30.72 20.833103 39.371034 30.896551l-386.824827 174.786207z" fill="" /><path d="M835.442759 674.604138l-64.264828-60.38069c52.435862-55.790345 81.390345-128.882759 81.390345-205.506207 0-165.428966-134.708966-300.137931-300.137931-300.137931s-300.137931 134.708966-300.137931 300.137931c0 44.137931 9.357241 86.510345 27.71862 126.234483l-80.154482 37.075862a385.05931 385.05931 0 0 1-35.84-163.310345c0-214.157241 174.256552-388.413793 388.413793-388.413793s388.413793 174.256552 388.413793 388.413793c0 99.045517-37.428966 193.50069-105.401379 265.886897z" fill="" /><path d="M702.49931 390.885517v-70.620689h-61.793103l56.673103-56.673104-49.787586-49.964138-81.92 81.92-81.92-81.92-49.964138 49.964138 56.673104 56.673104h-61.616552v70.620689h101.517241v35.310345h-101.517241v70.62069h101.517241v88.275862h70.62069v-88.275862h101.517241v-70.62069h-101.517241v-35.310345z" fill="#BDBCBC" /></svg>