<svg class="svg-icon" style="width: 1em; height: 1em;vertical-align: middle;fill: currentColor;overflow: hidden;" viewBox="0 0 1024 1024" version="1.1" xmlns="http://www.w3.org/2000/svg"><path d="M744.448 526.336c57.344-34.816 94.208-99.328 94.208-177.152 0-112.64-92.16-204.8-204.8-204.8-37.888 0-74.752 10.24-107.52 30.72-36.864-27.648-82.944-45.056-133.12-45.056-122.88 0-222.208 99.328-222.208 222.208 0 86.016 49.152 160.768 120.832 197.632-136.192 45.056-233.472 174.08-233.472 324.608 0 11.264 9.216 20.48 20.48 20.48s20.48-9.216 20.48-20.48c0-159.744 124.928-290.816 281.6-300.032h12.288c6.144 0 11.264 0 17.408-1.024 160.768 5.12 290.816 138.24 290.816 301.056 0 11.264 9.216 20.48 20.48 20.48s20.48-9.216 20.48-20.48c0-153.6-102.4-284.672-242.688-327.68 68.608-37.888 115.712-110.592 115.712-194.56 0-57.344-21.504-109.568-57.344-148.48 23.552-12.288 49.152-18.432 75.776-18.432 90.112 0 163.84 73.728 163.84 163.84 0 86.016-56.32 152.576-134.144 162.816h-17.408c-5.12 0-9.216 2.048-12.288 4.096-6.144 3.072-11.264 10.24-11.264 18.432 0 11.264 9.216 20.48 20.48 20.48 7.168 0 15.36 0 22.528-1.024 146.432 10.24 259.072 132.096 259.072 286.72 0 11.264 9.216 20.48 20.48 20.48s20.48-9.216 20.48-20.48c0-150.528-92.16-273.408-221.184-314.368z m-335.872 6.144h-26.624c-95.232-5.12-169.984-83.968-169.984-180.224 0-100.352 80.896-181.248 181.248-181.248s181.248 80.896 181.248 181.248c0 94.208-72.704 172.032-165.888 180.224z"  /></svg>