<svg class="svg-icon" style="width: 1.25em; height: 1em;vertical-align: middle;fill: currentColor;overflow: hidden;" viewBox="0 0 1280 1024" version="1.1" xmlns="http://www.w3.org/2000/svg"><path d="M994.432 648a64 64 0 0 1-0.192 90.24 63.744 63.744 0 0 1-90.368 0.256l-136-136-136.064 136a63.744 63.744 0 0 1-90.304-0.192 64 64 0 0 1-0.256-90.304L677.312 512 541.248 376a64 64 0 0 1 0.256-90.24 63.744 63.744 0 0 1 90.304-0.256l136.064 136 136-136a63.744 63.744 0 0 1 90.368 0.192 64 64 0 0 1 0.192 90.304L858.368 512l136.064 136zM16.448 562.048c-21.952-27.648-21.76-72.704 0-100.096L343.936 50.048C365.888 22.4 412.48 0 447.36 0h704.64a128 128 0 0 1 128 128.128v767.744A128.128 128.128 0 0 1 1152 1024H447.488c-35.2 0-81.728-22.656-103.488-50.048L16.448 562.048zM447.424 896h704.64L1152 128.128 447.424 128l-307.84 384 307.84 384z" fill="#191D3A" /></svg>