<svg class="svg-icon" style="width: 1em; height: 1em;vertical-align: middle;fill: currentColor;overflow: hidden;" viewBox="0 0 1024 1024" version="1.1" xmlns="http://www.w3.org/2000/svg"><path d="M223.595474 318.284043l24.022113 480.742089c0 54.376445 44.989657 98.456383 100.485599 98.456383l331.963601 0c55.494918 0 100.489692-44.078914 100.489692-98.456383l23.109324-480.742089L223.595474 318.284043zM831.749418 284.181341c0.099261-20.274766 0.158612-21.623483 0.158612-22.981411 0-52.871161-31.298843-81.888032-73.29533-81.888032l-116.892267 0.122797c0-27.751041-27.105335-50.245358-54.855352-50.245358L441.349917 129.189338c-27.744901 0-55.727209 22.494317-55.727209 50.245358l-117.013017-0.122797c-46.387493 0-73.29533 35.359322-73.29533 81.888032 0 1.363044 0.054235 2.706645 0.158612 22.981411l636.281561 0L831.749418 284.181341zM614.168937 444.615287c0-15.32708 12.421914-27.750017 27.744901-27.750017 15.32708 0 27.750017 12.422937 27.750017 27.750017l0 317.882907c0 15.328104-12.422937 27.751041-27.750017 27.751041-15.322987 0-27.744901-12.422937-27.744901-27.751041L614.168937 444.615287 614.168937 444.615287zM485.85862 444.615287c0-15.32708 12.42703-27.750017 27.751041-27.750017 15.32708 0 27.750017 12.422937 27.750017 27.750017l0 317.882907c0 15.328104-12.422937 27.751041-27.750017 27.751041-15.322987 0-27.751041-12.422937-27.751041-27.751041L485.85862 444.615287 485.85862 444.615287zM357.63733 444.615287c0-15.32708 12.422937-27.750017 27.751041-27.750017 15.321964 0 27.750017 12.422937 27.750017 27.750017l0 317.882907c0 15.328104-12.42703 27.751041-27.750017 27.751041-15.328104 0-27.751041-12.422937-27.751041-27.751041L357.63733 444.615287 357.63733 444.615287zM357.63733 444.615287"  /></svg>