<svg class="svg-icon" style="width: 1em; height: 1em;vertical-align: middle;fill: currentColor;overflow: hidden;" viewBox="0 0 1024 1024" version="1.1" xmlns="http://www.w3.org/2000/svg"><path d="M609.28 413.866667c-7.9872-7.970133-11.946667-17.92-11.946667-29.866667s3.959467-22.186667 11.946667-30.72c8.533333-7.970133 18.773333-11.946667 30.72-11.946667s21.896533 3.976533 29.866667 11.946667c8.533333 8.533333 12.8 18.773333 12.8 30.72s-4.266667 21.896533-12.8 29.866667c-7.970133 8.533333-17.92 12.8-29.866667 12.8s-22.186667-4.266667-30.72-12.8z"  /><path d="M426.478933 823.330133c-32.546133 0-65.006933-14.2336-96.5632-42.6496L158.600533 609.399467a17.0496 17.0496 0 0 1 0-24.132267l512-512a17.0496 17.0496 0 0 1 24.132267 0l256 256a17.0496 17.0496 0 0 1 0 24.132267l-426.666667 426.666666c-32.0512 28.859733-64.853333 43.264-97.5872 43.264zM194.798933 597.333333l158.600534 158.600534c49.7664 44.7488 96.733867 44.7488 147.182933-0.6144L573.201067 682.666667 341.333333 450.798933 194.798933 597.333333z m170.666667-170.666666L597.333333 658.5344 914.5344 341.333333 682.666667 109.4656 365.4656 426.666667zM640 443.733333a58.624 58.624 0 0 1-42.769067-17.783466C585.966933 414.72 580.266667 400.605867 580.266667 384c0-16.366933 5.563733-30.634667 16.554666-42.376533 12.561067-11.793067 26.811733-17.3568 43.178667-17.3568 16.5888 0 30.702933 5.700267 41.9328 16.964266A58.504533 58.504533 0 0 1 699.733333 384c0 16.571733-6.2976 31.214933-18.210133 42.3424-10.308267 11.093333-24.951467 17.390933-41.5232 17.390933z m0-85.333333c-7.6288 0-13.704533 2.338133-19.063467 7.355733-4.1984 4.539733-6.536533 10.5984-6.536533 18.244267 0 7.406933 2.2016 13.056 6.929067 17.783467l0.017066 0.017066A24.917333 24.917333 0 0 0 640 409.6c7.2704 0 12.629333-2.269867 17.390933-7.389867 5.922133-5.5808 8.209067-10.939733 8.209067-18.210133 0-7.406933-2.491733-13.329067-7.799467-18.653867-4.727467-4.744533-10.3936-6.946133-17.800533-6.946133zM426.666667 972.8H85.333333a34.133333 34.133333 0 0 1 0-68.266667h341.333334a34.133333 34.133333 0 0 1 0 68.266667z"  /></svg>