<svg class="svg-icon" style="width: 1em; height: 1em;vertical-align: middle;fill: currentColor;overflow: hidden;" viewBox="0 0 1024 1024" version="1.1" xmlns="http://www.w3.org/2000/svg"><path d="M353 412.5c-22.1 0-40.2 18-40.2 40.2s18 40.2 40.2 40.2 40.2-18 40.2-40.2-18-40.2-40.2-40.2z m0 60.3c-11.1 0-20.2-9-20.2-20.2s9-20.2 20.2-20.2 20.2 9 20.2 20.2-9 20.2-20.2 20.2z" fill="#3B4552" /><path d="M805.7 480.4c-22.4-5.4-44.5-6.7-62.2-3.8-6.1 1-11.5 2.5-16.2 4.4-1.8-33.5-13.6-70-46.3-103.8-33.3-34.4-85.3-62-142.6-75.8-56.6-13.6-110.1-11.2-148.2 6.6-6.3-4.9-17.8-13.6-30-21.7-30.3-20.2-46.3-24.5-55.2-15-8.2 8.8-10.2 32.6-8.1 94.4 0.2 4.5 0.3 9.1 0.3 11.8-0.8 1-1.7 2.2-2.6 3.4-6.5 8.3-18.5 23.7-28 39.3-6.2 10.2-10.7 20.4-14 27.9-1.1 2.5-2.4 5.4-3.2 7.1-9.5 5.2-41.9 22.5-42.3 22.7l-5.3 2.8v78.9l7.5 1.9c0.4 0.1 41.3 10.8 55.7 15.4 2 2.3 5.9 8.9 9.2 14.4 7.9 13.2 18.8 31.4 32.9 45.9 13.9 14.3 31.5 27.6 44.4 37.3 4.5 3.4 9.5 7.1 12.2 9.5-0.8 10.5-3.8 39.3-5.8 57.5l-1.2 11.1h71l5.8-46c13.9 2.6 39.4 6.6 66.8 6.6 25.5 0 49.4-3.4 63.8-6l-5.7 45.5H633l6.5-67.7c10.9-11.9 55.2-61.6 67-96.7 0.8-2.2 1.6-4.8 2.7-7.7 6-17 15.6-44 17.9-75.5 2.3-3.1 8.4-6.6 19.7-8.5 5.3-0.9 11.1-1.3 17.2-1.2-2 2.8-3.6 5.9-4.8 9.3-7.3 19.6 1 41.9 18.5 49.6 4.1 1.8 8.5 2.8 12.9 2.8 4.3 0 8.6-0.9 12.8-2.6 9.4-4 16.9-12.1 20.7-22.4 2.9-7.7 3.3-15.9 1.7-23.4 22.6 10.5 35 25.2 39.1 37.5l18.9-6.5c-7.2-21.6-31.5-48.1-78.1-59.3z m-115.4 93.2c-1 2.9-2 5.6-2.8 8-11.8 35.1-64.4 91.3-64.9 91.9l-2.3 2.5-5.5 56.4h-34l6.4-51.1-14 3.3c-0.3 0.1-35.2 8.3-73.1 8.3-37.7 0-72.7-8.2-73.1-8.3l-10.9-2.6-6.3 50.3h-31c1.8-17.2 4.9-46.4 4.9-52 0-6.6-4.3-9.9-20.3-22-12.3-9.3-29.2-22.1-42.1-35.3-12.5-12.8-22.6-29.8-30-42.2-8.2-13.6-12.2-20.5-18.7-22.6-10.3-3.4-37.6-10.7-50.9-14.2v-51.5c10.8-5.8 34.5-18.5 39.2-21.1 4.1-2.3 5.8-6.2 9.9-15.4 3.1-7 7.2-16.5 12.7-25.5 8.9-14.6 20.5-29.4 26.7-37.4 4.6-5.9 5.4-6.9 6.1-8.8 1-2.6 0.9-4.2 0.4-19.3-0.4-12.4-1.1-31.1-0.7-47.8 0.4-18.7 1.9-27 2.9-30.5 3.9 1 13.6 4.8 34.5 19.1 15.5 10.6 29 21.6 29.2 21.7l5.1 4.2 5.8-3.1c34.1-18.1 85.2-20.9 140-7.7 53 12.7 102.7 39 132.9 70.3 34.3 35.4 42.6 74 40.9 108.1 0 1.2-0.2 3-0.2 3-1.8 28.9-10.8 54.2-16.8 71.3z m115-48.8c-1.9 5.1-5.4 9.1-9.7 10.9-2.3 1-5.9 1.8-9.8 0-7.9-3.5-11.4-14.7-7.8-24.4 1.9-5.1 5.4-9.1 9.7-10.9 1.3-0.6 3-1 5-1 1.5 0 3.1 0.3 4.8 1 7.8 3.4 11.4 14.6 7.8 24.4z" fill="#3B4552" /><path d="M467.6 539.5c0.3 10.9 2.6 18.9 6.9 24.2 4.3 5.3 12.2 8.5 23.8 9.5v-59.8c-15.7-2.6-27-7.4-33.9-14.3-6.9-6.9-10.3-16-10.3-27.2 0-11.9 3.7-21.4 11-28.6 7.3-7.2 18.4-11.3 33.2-12.5V412h13.3v18.8c14.7 1.5 25.3 5.7 31.8 12.6 6.5 6.9 9.8 16.2 9.8 27.7H537c-1.2-8.5-3.5-14.7-7.1-18.9-3.6-4.1-9.7-6.5-18.4-7.2v54c4.9 1.3 8.9 2.4 12 3.3 3.1 0.9 5.6 1.7 7.6 2.5 1.9 0.8 3.5 1.6 4.8 2.4 1.3 0.8 2.8 1.7 4.6 2.8 6 4 10.3 8.6 13.1 14 2.7 5.4 4.1 12.1 4.1 20.2 0 13.2-3.8 23.5-11.3 30.8-7.6 7.3-19.2 11.5-34.9 12.7v21.4h-13.3v-21.4c-17.1-1.3-29.4-6-36.7-14.1-7.3-8.1-10.9-19.5-10.8-34.2h16.9z m8.9-52c4.1 4.2 11.3 7.3 21.8 9.3v-51.6c-9.6 0.4-16.6 2.9-21.1 7.5s-6.8 10.7-6.8 18.1c0 6.9 2 12.4 6.1 16.7z m58.2 39.3c-4.2-4.9-11.9-8.6-23.1-10.9v57.6c9.3-0.3 16.5-2.9 21.7-8 5.1-5.1 7.7-11.6 7.7-19.4 0-8-2.1-14.4-6.3-19.3z" fill="#FF960B" /><path d="M511.8 970.2c-61.9 0-121.9-12.1-178.4-36-54.6-23.1-103.6-56.1-145.7-98.2-42.1-42.1-75.1-91.1-98.2-145.7-23.9-56.5-36-116.5-36-178.4s12.1-121.9 36-178.4c23.1-54.6 56.1-103.6 98.2-145.7 42.1-42.1 91.1-75.1 145.7-98.2 56.5-23.9 116.5-36 178.4-36s121.9 12.1 178.4 36c54.6 23.1 103.6 56.1 145.7 98.2 42.1 42.1 75.1 91.1 98.2 145.7 23.9 56.5 36 116.5 36 178.4s-12.1 121.9-36 178.4c-23 54.6-56.1 103.6-98.2 145.7-42.1 42.1-91.1 75.1-145.7 98.2-56.5 23.9-116.5 36-178.4 36z m0-896.6c-241.7 0-438.3 196.6-438.3 438.3s196.6 438.3 438.3 438.3 438.3-196.6 438.3-438.3S753.5 73.6 511.8 73.6z" fill="#3B4552" /></svg>