<svg class="svg-icon" style="width: 1em; height: 1em;vertical-align: middle;fill: currentColor;overflow: hidden;" viewBox="0 0 1024 1024" version="1.1" xmlns="http://www.w3.org/2000/svg"><path d="M938.562 608.722v268.064l-9.149 5.899c-0.541 0.349-3.333 2.11-8.403 4.757 27.093-8.307 40.188-15.696 40.188-15.696V620.509s-6.61-5.157-22.636-11.787zM586.486 596.924c29.448 5.806 67.712 10.075 116.621 10.075 72.238 0 122.011-9.313 154.488-19.184-29.893-4.573-67.355-7.751-113.756-7.751-73.565 0-124 7.986-157.353 16.86zM703.107 781.752c-69.231 0-127.513-7.943-173.317-23.604v105.31c32.318 11.894 89.558 26.858 173.096 26.858 109.854 0 173.419-25.34 195.731-36.276V750.398a276.185 276.185 0 0 1-17.819 6.812c-47.279 16.285-107.063 24.542-177.691 24.542zM703.107 646.944c-69.231 0-127.512-7.943-173.317-23.604v92.08c29.198 11.91 83.218 26.387 173.317 26.387 115.839 0 173.923-23.941 195.51-35.739v-90.479a276.774 276.774 0 0 1-17.819 6.812c-47.279 16.286-107.063 24.543-177.691 24.543z" fill="#FCDE9E" /><path d="M938.562 876.786V567.586l-6.703-5.959c-1.646-1.463-17.133-14.658-53.568-27.241-46.851-16.18-106.42-24.384-177.054-24.384-70.687 0-129.75 8.221-175.551 24.435-35.861 12.695-50.679 26.137-52.251 27.627l-6.227 5.907v308.814l9.149 5.899c3.013 1.943 75.519 47.575 226.528 47.575 123.906 0 194.946-30.717 218.125-42.819 5.07-2.647 7.862-4.408 8.403-4.757l9.149-5.897zM701.237 549.947c97.172 0 153.196 16.724 181.225 28.998-6.8 2.847-15.04 5.883-24.867 8.87-32.477 9.871-82.25 19.184-154.488 19.184-48.909 0-87.173-4.269-116.621-10.075-28.626-5.644-48.91-12.737-62.499-18.786 27.471-12.104 81.917-28.191 177.25-28.191z m197.38 304.093c-22.312 10.935-85.877 36.276-195.731 36.276-83.538 0-140.778-14.964-173.096-26.858-9.832-3.618-17.386-6.956-22.636-9.497V749.272c5.738 2.585 12.296 5.25 19.767 7.888 0.948 0.335 1.91 0.66 2.868 0.988 45.804 15.661 104.086 23.604 173.317 23.604 70.628 0 130.412-8.257 177.691-24.542a276.774 276.774 0 0 0 17.819-6.812V854.04z m0-147.972c-21.588 11.798-79.672 35.739-195.51 35.739-90.099 0-144.119-14.477-173.317-26.387-10.69-4.361-18.05-8.374-22.636-11.21v-89.747c5.737 2.585 12.295 5.251 19.766 7.888 0.948 0.335 1.911 0.661 2.87 0.989 45.805 15.661 104.086 23.604 173.317 23.604 70.628 0 130.412-8.257 177.691-24.543a276.774 276.774 0 0 0 17.819-6.812v90.479z" fill="#58A80A" /><path d="M308.545 472.19c128.394 0 185.841-29.413 201.273-39.101v-92.932c-6.638 3.022-14.461 6.198-23.581 9.339-47.28 16.285-107.063 24.542-177.692 24.542-70.68 0-129.957-8.274-176.186-24.593a273.494 273.494 0 0 1-4.684-1.706v94.8c26.954 12.337 82.333 29.651 180.87 29.651zM132.359 622.351a273.494 273.494 0 0 1-4.684-1.706v91.512c26.954 12.336 82.332 29.65 180.87 29.65 52.904 0 93.757-4.996 124.596-11.546l0.201-93.995c-36.603 7.081-78.336 10.678-124.797 10.678-70.68 0-129.957-8.274-176.186-24.593zM132.359 757.16a273.494 273.494 0 0 1-4.684-1.706v107.143c34.018 12.105 94.429 27.719 179.753 27.719 50.702 0 92.592-5.518 125.396-12.534l0.228-106.651c-36.534 7.044-78.169 10.622-124.508 10.622-70.679-0.001-129.956-8.274-176.185-24.593zM555.151 502.575l18.579-3.2V191.808s-7.408-5.383-23.967-12.397V503.39c3.424-0.563 5.388-0.815 5.388-0.815zM509.818 478.254c-6.638 3.022-14.461 6.198-23.581 9.339-47.28 16.285-107.063 24.542-177.692 24.542-70.68 0-129.957-8.274-176.186-24.593a273.494 273.494 0 0 1-4.684-1.706v91.511c26.954 12.336 82.332 29.651 180.87 29.651 53.123 0 94.05-5 124.885-11.547l0.065-30.404c10.816-27.127 46.41-43.295 76.323-52.362v-34.431zM127.675 191.808v1.401c31.592 12.979 88.173 28.005 180.87 28.005 113.787 0 174.773-22.642 201.273-36.355V166.76a142.142 142.142 0 0 0-3.357-1.778c-35.716-9.338-87.066-17.525-157.395-17.525-163.704 0-221.391 44.351-221.391 44.351z" fill="#FCDE9E" /><path d="M308.545 334.093c128.394 0 185.841-29.413 201.273-39.101V187.976c-7.333 3.736-17.084 8.046-29.652 12.375-31.159 10.733-86.226 23.526-171.621 23.526-85.398 0-139.572-12.796-169.981-23.53a255.114 255.114 0 0 1-10.889-4.121v108.217c26.954 12.336 82.333 29.65 180.87 29.65z" fill="#FCDE9E" /><path d="M127.675 577.348c-14.702-6.729-20.956-11.978-21.125-12.125l0.241 0.219-1.752 1.882v-91.249c6.236 3.116 13.74 6.443 22.636 9.763a282.25 282.25 0 0 0 4.684 1.706c46.229 16.318 105.506 24.593 176.186 24.593 70.628 0 130.412-8.258 177.692-24.542 9.12-3.141 16.943-6.317 23.581-9.339v34.431c17.034-5.163 32.22-8.025 39.945-9.295V146.005l-7.604-5.997c-2.633-2.077-66.45-50.871-236.379-50.871-170.241 0-231.014 49.133-233.517 51.225l-7.168 5.988v730.976l9.85 5.792c3.274 1.924 81.914 47.144 232.484 47.144 49.625 0 91.433-4.913 125.309-11.568l0.088-40.911c-32.805 7.017-74.695 12.534-125.396 12.534-85.324 0-145.735-15.614-179.753-27.719-9.7-3.452-17.264-6.619-22.636-9.056v-107.85c6.236 3.116 13.74 6.443 22.636 9.763a282.25 282.25 0 0 0 4.684 1.706c46.229 16.319 105.506 24.593 176.186 24.593 46.339 0 87.975-3.578 124.508-10.622l0.088-40.87c-30.839 6.551-71.692 11.546-124.596 11.546-98.537 0-153.915-17.314-180.87-29.65-14.702-6.729-20.956-11.978-21.125-12.125l0.241 0.218-1.752 1.882v-91.251c6.236 3.116 13.74 6.443 22.636 9.763a282.25 282.25 0 0 0 4.684 1.706c46.229 16.319 105.506 24.593 176.186 24.593 46.461 0 88.194-3.597 124.797-10.678l0.087-40.815c-30.834 6.547-71.762 11.547-124.885 11.547-98.538 0.001-153.917-17.314-180.871-29.65zM105.04 166.502c19.305-10.964 78.56-37.42 200.74-37.42 116.367 0 177.527 24.008 200.681 35.9a144.14 144.14 0 0 1 3.357 1.778v18.099c-26.5 13.713-87.486 36.355-201.273 36.355-92.697 0-149.278-15.026-180.87-28.005-9.868-4.054-17.309-7.909-22.636-11.044v-15.663z m0 18.854c5.489 3.165 12.923 6.934 22.636 10.87 3.356 1.36 6.975 2.74 10.889 4.121 30.409 10.734 84.583 23.53 169.981 23.53 85.395 0 140.461-12.794 171.621-23.526 12.568-4.329 22.32-8.638 29.652-12.375v107.016c-15.432 9.688-72.878 39.101-201.273 39.101-98.537 0-153.916-17.314-180.87-29.65-14.702-6.729-20.956-11.978-21.125-12.125l0.241 0.219-1.752 1.882V185.356z m0 152.622c6.236 3.116 13.74 6.443 22.636 9.763a282.25 282.25 0 0 0 4.684 1.706c46.229 16.318 105.506 24.593 176.186 24.593 70.628 0 130.412-8.258 177.692-24.542 9.12-3.141 16.943-6.317 23.581-9.339v92.932c-15.432 9.688-72.878 39.101-201.273 39.101-98.537 0-153.916-17.314-180.87-29.65-14.702-6.729-20.956-11.978-21.125-12.125l0.241 0.219-1.752 1.882v-94.54z" fill="#58A80A" /></svg>