<svg class="svg-icon" style="width: 1em; height: 1em;vertical-align: middle;fill: currentColor;overflow: hidden;" viewBox="0 0 1024 1024" version="1.1" xmlns="http://www.w3.org/2000/svg"><path d="M936.235692 601.708778c-2.815986 0.746663-5.546639 1.877324-8.063959 3.327983-16.72525 9.32262-33.791831 24.447878-51.882408 40.447798-7.957294 7.061298-15.893254 14.037263-23.743881 20.650564-0.064 0.064-2.154656 1.855991-5.119974 6.6133-89.684885 144.788609-235.732155 175.359123-337.768978 185.641738-18.431908 1.855991-36.991815 3.391983-57.429046 5.077308l-28.607857 2.410655a67.90366 67.90366 0 0 1-63.893014-32.618504 68.351658 68.351658 0 0 1 0.789329-71.892973l11.498609-17.877244c5.610639-8.66129 10.367948-15.893254 14.549261-23.167885 6.07997-10.773279 5.674638-14.399928 3.946647-17.386579a39.33847 39.33847 0 0 0-6.07997 1.279993c-22.037223 6.719966-43.647782 15.99992-62.506354 26.815866-84.09558 48.426425-163.519182 81.91959-243.006785 102.143489 0.255999 26.7092 0.149333 53.3544 0.085333 80.0636-0.042666 13.738598-0.085333 27.477196-0.042666 41.727792l105.727471 0.405331c51.711741 0.277332 103.466149 0.426665 155.177891 0.469331 93.866197 0 170.04715-0.831996 239.764134-2.517321 33.962497-0.917329 76.116953-18.410575 109.994117-32.554504 113.556766-47.253097 193.577699-121.32206 244.670777-226.494867 11.90394-24.447878 14.101263-50.837079 6.805299-80.72493a34.239829 34.239829 0 0 0-4.863976-11.839941z m1.493326-68.372991c32.853169 0 59.413036 23.530549 69.375653 63.87168 10.623947 43.349117 8.234625 86.186236-11.690608 127.060698-59.733035 122.794053-155.30589 207.721628-279.721268 259.49737-42.815786 17.834577-89.108888 36.543817-134.335328 37.674478-80.426265 2.005323-160.916529 2.559987-241.492126 2.559987-94.67686 0-189.268387-0.767996-283.945247-0.917329-31.018512-0.064-44.607777-13.802598-44.927776-44.799776C10.67232 924.864496 11.525649 871.467429 10.67232 818.006363c-0.383998-27.30653 12.373271-41.663792 38.037143-47.658428 85.034241-19.797234 163.775181-54.954392 239.358803-98.474174a373.651465 373.651465 0 0 1 76.522284-32.959836c8.831956-2.773319 18.005243-4.223979 27.242531-4.287978 20.330565 0 39.146471 7.978627 53.098401 27.349196 21.461226 29.695852 17.98391 61.35436 0.59733 91.946207-7.466629 13.077268-16.042586 25.493206-27.733194 43.882448 32.234505-2.773319 58.666373-4.69331 85.034241-7.381297 116.586084-11.775941 220.69223-47.039765 286.8039-153.812564 5.162641-8.533291 11.605275-16.234585 19.114571-22.805219 28.245192-23.637215 54.67706-50.901079 86.356901-68.522324a89.91955 89.91955 0 0 1 42.602454-11.946607zM918.401115 460.589484a34.367828 34.367828 0 0 1-37.013149-30.570514c-18.389241-205.865637-192.489704-363.390183-400.53133-362.408855-221.737558 0-402.173989 179.263104-402.173989 399.571336a394.814026 394.814026 0 0 0 28.458524 147.839261 33.749165 33.749165 0 0 1-19.050571 43.90378 34.133163 34.133163 0 0 1-44.202446-18.901239A462.440354 462.440354 0 0 1 10.67232 467.181451C10.67232 209.604072 221.657932 0.00512 480.899302 0.00512c243.262784-1.130661 446.824433 183.103084 468.285659 423.805881a33.91983 33.91983 0 0 1-30.80518 36.757149z" fill="#000000" /><path d="M309.337493 214.74538c1.791991-13.546599 9.941284-21.055895 24.319879-22.74122 14.485261 0 25.25854 5.930637 32.426504 17.706578l105.770138 135.785988 100.714163-135.785988c7.189297-11.775941 18.090576-17.706578 32.447838-17.706578 14.506594 1.685325 22.527887 9.301287 24.319878 22.74122-1.791991 6.826633-4.437311 13.546599-8.149292 20.266565-1.791991 1.685325-2.751986 3.37065-2.751986 5.034641l-87.188898 120.575398h65.045008c19.861234 0 29.802518 7.615962 29.802518 22.741219-1.791991 11.861274-11.733275 18.58124-29.802518 20.266566h-94.719526v45.461106h94.719526c19.861234 0 29.802518 7.615962 29.802518 22.741219-1.791991 11.754608-11.733275 18.602574-29.802518 20.266566h-94.719526v101.268826c0 16.789249-9.834617 25.301207-29.845184 25.301207-19.754568 0-29.695852-8.511957-29.695852-25.301207v-101.034161h-94.719526c-17.962577-1.685325-27.90386-8.511957-29.823851-20.266565 0-15.231924 9.941284-22.74122 29.823851-22.74122h94.719526V403.843101h-94.719526c-17.962577-1.663992-27.90386-8.383958-29.823851-20.266566 0-15.231924 9.941284-22.74122 29.823851-22.741219h64.895675L320.004107 240.174586c0.106666-1.791991-0.72533-3.477316-2.517321-5.162641-5.525306-10.197282-8.149293-16.789249-8.149293-20.266565z" fill="#000000" /></svg>