<svg class="svg-icon" style="width: 1em;height: 1em;vertical-align: middle;fill: currentColor;overflow: hidden;" viewBox="0 0 1024 1024" version="1.1" xmlns="http://www.w3.org/2000/svg"><path d="M755.809524 17.237333H73.142857C46.32381 17.237333 24.380952 39.18019 24.380952 65.999238v146.285714c0 26.819048 21.942857 48.761905 48.761905 48.761905h682.666667c26.819048 0 48.761905-21.942857 48.761905-48.761905V65.999238c0-26.819048-21.942857-48.761905-48.761905-48.761905zM755.809524 309.808762H73.142857c-26.819048 0-48.761905 21.942857-48.761905 48.761905v146.285714c0 26.819048 21.942857 48.761905 48.761905 48.761905h682.666667c26.819048 0 48.761905-21.942857 48.761905-48.761905v-146.285714c0-26.819048-21.942857-48.761905-48.761905-48.761905zM755.809524 602.38019H73.142857c-26.819048 0-48.761905 21.942857-48.761905 48.761905v146.285715c0 26.819048 21.942857 48.761905 48.761905 48.761904h682.666667c26.819048 0 48.761905-21.942857 48.761905-48.761904v-146.285715c0-26.819048-21.942857-48.761905-48.761905-48.761905z" fill="#D1C4E9" /><path d="M755.809524 773.046857m-243.809524 0a243.809524 243.809524 0 1 0 487.619048 0 243.809524 243.809524 0 1 0-487.619048 0Z" fill="#43A047" /><path d="M865.52381 658.456381L726.552381 797.42781l-65.828571-65.828572-51.2 53.638095 117.028571 117.028572 190.171429-190.171429z" fill="#DCEDC8" /></svg>