<svg class="svg-icon" style="width: 1em; height: 1em;vertical-align: middle;fill: currentColor;overflow: hidden;" viewBox="0 0 1024 1024" version="1.1" xmlns="http://www.w3.org/2000/svg"><path d="M964.48 965.12 59.52 965.12c-32.64 0-59.52-26.24-59.52-58.88L0 225.92c0-32 26.88-58.88 59.52-58.88l128 0c10.88 0 19.2 8.32 19.2 19.2s-8.32 19.2-19.2 19.2l-128 0c-11.52 0-21.12 8.96-21.12 20.48l0 680.32c0 10.88 9.6 20.48 21.12 20.48l905.6 0c11.52 0 21.12-8.96 21.12-20.48L986.24 225.92c0-10.88-9.6-20.48-21.12-20.48L851.2 205.44c-10.88 0-19.2-8.32-19.2-19.2s8.32-19.2 19.2-19.2l113.28 0c32.64 0 59.52 26.24 59.52 58.88l0 680.32C1024 938.88 997.12 965.12 964.48 965.12z"  /><path d="M668.8 205.44 347.52 205.44c-10.88 0-19.2-8.32-19.2-19.2s8.32-19.2 19.2-19.2l321.28 0c10.88 0 19.2 8.32 19.2 19.2S679.68 205.44 668.8 205.44z"  /><path d="M271.36 328.32c-10.88 0-19.2-8.32-19.2-19.2L252.16 78.08c0-10.88 8.32-19.2 19.2-19.2s19.2 8.32 19.2 19.2l0 231.04C290.56 320 281.6 328.32 271.36 328.32z"  /><path d="M760.32 328.32c-10.88 0-19.2-8.32-19.2-19.2L741.12 78.08c0-10.88 8.32-19.2 19.2-19.2s19.2 8.32 19.2 19.2l0 231.04C779.52 320 770.56 328.32 760.32 328.32z"  /><path d="M1004.8 404.48 19.2 404.48c-10.88 0-19.2-8.32-19.2-19.2s8.32-19.2 19.2-19.2l985.6 0c10.88 0 19.2 8.32 19.2 19.2S1015.68 404.48 1004.8 404.48z"  /><path d="M881.28 583.68 142.72 583.68c-10.88 0-19.2-8.32-19.2-19.2s8.32-19.2 19.2-19.2l738.56 0c10.88 0 19.2 8.32 19.2 19.2S891.52 583.68 881.28 583.68z"  /><path d="M881.28 775.04 142.72 775.04c-10.88 0-19.2-8.32-19.2-19.2s8.32-19.2 19.2-19.2l738.56 0c10.88 0 19.2 8.32 19.2 19.2S891.52 775.04 881.28 775.04z"  /></svg>