<svg class="svg-icon" style="width: 1em; height: 1em;vertical-align: middle;fill: currentColor;overflow: hidden;" viewBox="0 0 1024 1024" version="1.1" xmlns="http://www.w3.org/2000/svg"><path d="M84.966062 525.113385a431.188316 416.593805 90 1 0 833.18761 0 431.188316 416.593805 90 1 0-833.18761 0Z" fill="#E9EAEB" /><path d="M520.200381 321.512735c-20.374515-22.542017-42.627531-36.125026-73.550554-36.125026h-330.182742v303.450222h61.268045s38.075778 63.869047 110.036831 63.869047h315.949481V429.309814z" fill="#FFFFFF" /><path d="M619.616454 668.74649H287.771961c-65.025048 0-104.834827-45.300783-118.417837-63.869047h-68.78205V269.709448h346.005503c32.801524 0 59.967544 13.07726 85.255063 41.18253l0.7225 0.93925 86.700064 112.132083zM132.289847 573.15967h54.47654l4.624003 7.730755c0 0.50575 34.680025 56.138291 96.453821 56.138292h300.05447v-202.300149L507.917872 331.699993c-19.290764-21.169266-37.642278-30.272772-61.340295-30.272772h-314.28773z" fill="#2A5082" /><path d="M996.76173 429.309814H383.647781l-62.857546 63.869047v319.417484h675.971495V429.309814z" fill="#FFFFFF" /><path d="M1012.584492 828.419107H304.967473v-341.742751l72.250053-73.261553h635.800466z m-675.971495-31.717773h644.253721V445.132576H390.150286l-53.68179 54.54879z" fill="#2A5082" /><path d="M886.363649 748.727298h-455.175333a47.540535 47.540535 0 0 0-47.540535-47.540534V540.719396a47.540535 47.540535 0 0 0 47.540535-47.540535h455.175333a47.540535 47.540535 0 0 0 47.540535 47.540535v160.467368a47.540535 47.540535 0 0 0-47.540535 47.540534z" fill="#A3D4FF" /><path d="M902.186411 764.55006H415.365554v-15.822762a31.717773 31.717773 0 0 0-31.717773-31.717773h-15.822762V524.896634h15.822762a31.717773 31.717773 0 0 0 31.717773-31.717773v-15.822761h486.820857v15.822761a31.717773 31.717773 0 0 0 31.717773 31.717773h15.822762v192.185141h-15.822762a31.717773 31.717773 0 0 0-31.717773 31.717773z m-457.126085-31.645523h427.431313a63.652297 63.652297 0 0 1 45.517533-45.517534V554.591406a63.652297 63.652297 0 0 1-45.517533-45.517533H445.060326a63.652297 63.652297 0 0 1-45.517533 45.517533v132.723347a63.652297 63.652297 0 0 1 45.517533 45.589784z" fill="#2A5082" /><path d="M823.867353 605.094193h31.428773v31.717773h-31.428773z" fill="#2A5082" /><path d="M588.043181 620.989205a79.836308 70.732802 90 1 0 141.465603 0 79.836308 70.732802 90 1 0-141.465603 0Z" fill="#FFFFFF" /><path d="M658.775983 716.648275a82.07606 82.07606 0 0 1-61.846046-28.900021 103.173076 103.173076 0 0 1 0-133.951598 82.07606 82.07606 0 0 1 61.846046-28.900022 82.07606 82.07606 0 0 1 61.846045 28.900022 100.644324 100.644324 0 0 1 24.709518 67.553799c0 52.453538-38.870528 95.29782-86.555563 95.29782z m0-159.672617a50.575037 50.575037 0 0 0-38.148028 17.990263 71.455302 71.455302 0 0 0 0 91.902067 50.575037 50.575037 0 0 0 38.148028 18.062514c30.272772 0 54.91004-28.900021 54.91004-63.941297a68.998801 68.998801 0 0 0-16.689763-45.951034 50.575037 50.575037 0 0 0-38.148027-18.062513z" fill="#2A5082" /><path d="M551.123404 547.727651C514.709377 510.735624 375.700275 366.018768 375.700275 366.018768L211.403655 493.540111s64.302547 53.898539 143.055105 18.062514c0 0 71.021802 64.447047 92.552317 80.269809 51.514288 35.258026 140.598603-7.080505 104.112327-44.144783z" fill="#FFFFFF" /><path d="M492.889861 620.844705a96.815071 96.815071 0 0 1-54.83779-15.895012c-18.279263-13.43851-67.77055-57.800042-86.700064-74.851055-82.36506 31.212023-147.317858-22.036266-150.13561-24.348268l20.374515-24.276017c2.312002 1.878501 57.800042 46.890284 126.293093 15.822761l9.464757-4.335003 7.730755 7.225005c0.722501 0.65025 70.660552 64.085797 91.324067 79.475059 27.31052 18.712764 70.877302 9.031257 84.604812-7.225006 3.612503-4.335003 4.335003-7.225005-1.156001-12.932759-36.125026-36.703027-174.483878-180.625132-175.856628-181.925633l22.831016-21.675016c1.372751 1.445001 139.659352 145.078106 175.639879 181.636633a38.942779 38.942779 0 0 1 2.817752 54.91004c-14.594511 17.123263-43.061032 28.394271-72.394553 28.394271z" fill="#2A5082" /><path d="M22.108516 253.597686h110.036831v383.28653H22.108516z" fill="#E9EAEB" /><path d="M147.968108 652.779228H22.108516v-31.717773H116.322585V269.492697H22.108516v-31.717773h125.859592v415.004304z" fill="#2A5082" /><path d="M53.465039 301.571721h31.717773v47.901785H53.465039z" fill="#2A5082" /></svg>