<svg class="svg-icon" style="width: 1em; height: 1em;vertical-align: middle;fill: currentColor;overflow: hidden;" viewBox="0 0 1024 1024" version="1.1" xmlns="http://www.w3.org/2000/svg"><path d="M729.36 527.23c-61.91 0-120.11-24.11-163.89-67.88-43.78-43.78-67.88-101.98-67.88-163.89s24.11-120.11 67.88-163.89c43.78-43.78 101.98-67.88 163.89-67.88s120.11 24.11 163.89 67.88c43.78 43.78 67.88 101.98 67.88 163.89s-24.11 120.11-67.88 163.89c-43.78 43.77-101.98 67.88-163.89 67.88z m0-414.77c-100.9 0-182.99 82.09-182.99 182.99s82.09 182.99 182.99 182.99 182.99-82.09 182.99-182.99-82.09-182.99-182.99-182.99z"  /><path d="M717.91 971.95H147.54c-40.34 0-73.17-32.82-73.17-73.17V249.97c0-40.34 32.82-73.17 73.17-73.17h437.14l-18.17 35.5c-13.37 26.11-20.14 54.09-20.14 83.15 0 100.9 82.09 182.99 182.99 182.99 10.59 0 21.37-1.03 32.96-3.14l28.76-5.24v428.71c0 40.36-32.82 73.18-73.17 73.18zM147.54 225.58c-13.45 0-24.39 10.94-24.39 24.39v648.82c0 13.45 10.94 24.39 24.39 24.39h570.38c13.45 0 24.39-10.94 24.39-24.39V526.84c-4.34 0.26-8.65 0.39-12.94 0.39-61.91 0-120.11-24.11-163.89-67.88-43.78-43.78-67.89-101.98-67.89-163.89 0-23.98 3.63-47.36 10.82-69.88H147.54z"  /><path d="M623.696 369.16l173.583-173.73 34.507 34.478-173.583 173.73z"  /><path d="M623.69 229.889l34.508-34.478 173.583 173.73-34.507 34.478zM233.42 388.67H441.7v48.78H233.42zM233.42 549.99h400.4v48.78h-400.4zM233.42 711.3h400.4v48.78h-400.4z"  /></svg>