<svg class="svg-icon" style="width: 1.01953125em; height: 1em;vertical-align: middle;fill: currentColor;overflow: hidden;" viewBox="0 0 1044 1024" version="1.1" xmlns="http://www.w3.org/2000/svg"><path d="M801.879405 841.973375h40.09397a40.09397 40.09397 0 0 0 40.09397-40.09397v-40.09397a40.09397 40.09397 0 0 0-40.09397-40.093971h-40.09397a40.09397 40.09397 0 0 0-40.09397 40.093971v40.09397a40.09397 40.09397 0 0 0 40.09397 40.09397zM543.072827 721.691464h-40.09397a40.09397 40.09397 0 0 0-40.093971 40.093971v40.09397a40.09397 40.09397 0 0 0 40.093971 40.09397h40.09397a40.09397 40.09397 0 0 0 40.09397-40.09397v-40.09397a40.09397 40.09397 0 0 0-40.09397-40.093971zM502.778387 621.456539h40.09397a40.09397 40.09397 0 0 0 40.09397-40.09397v-40.093971a40.09397 40.09397 0 0 0-40.09397-40.09397h-40.09397a40.09397 40.09397 0 0 0-40.09397 40.09397v40.093971a40.09397 40.09397 0 0 0 40.09397 40.09397zM801.879405 621.456539h40.09397a40.09397 40.09397 0 0 0 40.09397-40.09397v-40.093971a40.09397 40.09397 0 0 0-40.09397-40.09397h-40.09397a40.09397 40.09397 0 0 0-40.09397 40.09397v40.093971a40.09397 40.09397 0 0 0 40.09397 40.09397z"  /><path d="M923.965544 61.744714h-122.086139V20.046985a20.046985 20.046985 0 0 0-40.09397 0v41.697729h-481.127643V20.046985a20.046985 20.046985 0 0 0-40.093971 0v41.697729h-120.28191a120.281911 120.281911 0 0 0-120.281911 120.281911v721.691464a120.281911 120.281911 0 0 0 120.281911 120.281911h803.683633a120.281911 120.281911 0 0 0 120.281911-120.281911v-721.691464a120.281911 120.281911 0 0 0-120.281911-120.281911z m80.187941 841.973375a80.18794 80.18794 0 0 1-80.187941 80.187941h-801.879405a80.18794 80.18794 0 0 1-80.18794-80.187941v-541.268598h962.255286z m0-581.362568h-962.255286v-140.328896a80.18794 80.18794 0 0 1 80.18794-80.187941h118.477682V140.328896a20.046985 20.046985 0 0 0 40.093971 0V102.039154h481.127643V140.328896a20.046985 20.046985 0 0 0 40.09397 0V102.039154h121.885669a80.18794 80.18794 0 0 1 80.187941 80.187941z"  /><path d="M200.469851 622.458888h40.09397a40.09397 40.09397 0 0 0 40.093971-40.09397v-40.09397a40.09397 40.09397 0 0 0-40.093971-40.093971h-40.09397a40.09397 40.09397 0 0 0-40.09397 40.093971v40.09397a40.09397 40.09397 0 0 0 40.09397 40.09397zM200.469851 841.973375h40.09397a40.09397 40.09397 0 0 0 40.093971-40.09397v-40.09397a40.09397 40.09397 0 0 0-40.093971-40.093971h-40.09397a40.09397 40.09397 0 0 0-40.09397 40.093971v40.09397a40.09397 40.09397 0 0 0 40.09397 40.09397z"  /></svg>