<svg class="svg-icon" style="width: 1em; height: 1em;vertical-align: middle;fill: currentColor;overflow: hidden;" viewBox="0 0 1024 1024" version="1.1" xmlns="http://www.w3.org/2000/svg"><path d="M904.932693 1020.59008H119.067307c-39.389867 0-71.471787-31.36512-71.471787-70.161067V178.814293c0-38.792533 31.962453-70.157653 71.471787-70.157653h71.471786v35.075413c0 58.07104 48.00512 105.23648 107.154774 105.23648s107.158187-47.045973 107.158186-105.23648V108.65664h214.306134v35.075413c0 58.07104 48.00512 105.23648 107.154773 105.23648s107.154773-47.045973 107.154773-105.23648V108.65664h71.471787c39.39328 0 71.471787 31.361707 71.471787 70.157653v771.621547c-0.12288 38.662827-32.09216 70.15424-71.478614 70.15424z m0-666.385067H119.067307v596.224h785.8688V354.205013z m-71.471786 175.27808H190.539093V424.2432h642.914987v105.239893h0.006827z m0 175.397547H190.539093v-105.23648h642.914987v105.23648h0.006827z m0 175.394133H190.539093v-105.239893h642.914987v105.239893h0.006827z m-108.233387-666.385066c-38.905173 0-70.280533-30.887253-70.280533-69.07904V72.495787c0-38.191787 31.488-69.085867 70.280533-69.085867 38.785707 0 70.273707 30.890667 70.273707 69.085867v72.31488c0 38.07232-31.488 69.07904-70.273707 69.07904z m-428.612267 0c-38.908587 0-70.27712-30.887253-70.27712-69.07904V72.495787c0-38.191787 31.488-69.085867 70.27712-69.085867 38.785707 0 70.27712 30.890667 70.27712 69.085867v72.31488c0 38.07232-31.488 69.07904-70.27712 69.07904z"  /></svg>