<svg class="svg-icon" style="width: 1em; height: 1em;vertical-align: middle;fill: currentColor;overflow: hidden;" viewBox="0 0 1024 1024" version="1.1" xmlns="http://www.w3.org/2000/svg"><path d="M749.614 723.758h-399.92c-17.141 0-31.915-12.066-35.327-28.86L184.57 179.385 80.024 145.297c-16.906-10.511-22.09-32.738-11.579-49.647 10.51-16.904 32.748-22.096 49.647-11.575l117.739 42.28a36.014 36.014 0 0 1 16.288 23.43L379.146 651.66h345.793l165.794-252.17c7.2-18.552 28.094-27.763 46.653-20.569 18.55 7.203 27.765 28.087 20.566 46.65L783.217 700.743c-5.372 13.882-18.723 23.015-33.603 23.015z m-28.612-461.545L591.08 115.133c-7.092-8.025-18.686-8.025-25.778 0l-129.947 147.08c-7.09 8.025-4.132 14.59 6.575 14.59h102.186v164.69c0 10.71 8.757 19.466 19.465 19.466h29.197c10.708 0 19.465-8.757 19.465-19.466V276.801h102.183c10.712 0 13.667-6.565 6.576-14.588zM348.61 881.754a62.5 62.5 0 1 0 127.914 0 62.5 62.5 0 1 0-127.914 0z m331.551 0a62.5 62.5 0 1 0 127.914 0 62.5 62.5 0 1 0-127.914 0z" fill="" /></svg>