<svg class="svg-icon" style="width: 1.001953125em; height: 1em;vertical-align: middle;fill: currentColor;overflow: hidden;" viewBox="0 0 1026 1024" version="1.1" xmlns="http://www.w3.org/2000/svg"><path d="M763.904 892.928c24.576 0 45.056 20.48 45.056 45.056 0 24.576-20.48 45.056-45.056 45.056-24.576 0-45.056-20.48-45.056-45.056C718.848 913.408 739.328 892.928 763.904 892.928M763.904 851.968c-47.104 0-86.016 38.912-86.016 86.016 0 47.104 38.912 86.016 86.016 86.016 47.104 0 86.016-38.912 86.016-86.016C849.92 889.856 811.008 851.968 763.904 851.968L763.904 851.968z"  /><path d="M366.592 892.928c24.576 0 45.056 20.48 45.056 45.056 0 24.576-20.48 45.056-45.056 45.056-24.576 0-45.056-20.48-45.056-45.056C320.512 913.408 340.992 892.928 366.592 892.928M366.592 851.968c-47.104 0-86.016 38.912-86.016 86.016 0 47.104 38.912 86.016 86.016 86.016 47.104 0 86.016-38.912 86.016-86.016C452.608 889.856 413.696 851.968 366.592 851.968L366.592 851.968z"  /><path d="M186.368 76.8c5.12 0 9.216 3.072 11.264 7.168l58.368 102.4 702.464 0c13.312 0 19.456 8.192 21.504 12.288 2.048 4.096 6.144 13.312 0 24.576L785.408 545.792c-4.096 7.168-12.288 12.288-20.48 12.288L358.4 558.08l-64.512 103.424c-11.264 17.408-11.264 38.912-1.024 56.32 10.24 17.408 27.648 28.672 48.128 28.672l525.312 0c7.168 0 13.312 6.144 13.312 13.312 0 7.168-6.144 13.312-13.312 13.312l-522.24 0c-21.504 0-41.984-6.144-55.296-18.432-32.768-27.648-39.936-72.704-18.432-107.52l68.608-110.592L137.216 104.448 54.272 104.448C47.104 104.448 40.96 98.304 40.96 90.112c0-7.168 6.144-13.312 13.312-13.312L186.368 76.8M186.368 35.84 54.272 35.84C24.576 35.84 0 60.416 0 90.112c0 29.696 24.576 54.272 54.272 54.272l57.344 0 182.272 388.096-57.344 92.16c-31.744 51.2-23.552 119.808 26.624 160.768 22.528 19.456 52.224 27.648 81.92 27.648l522.24 0c29.696 0 54.272-24.576 54.272-54.272 0-29.696-24.576-54.272-54.272-54.272L342.016 704.512c-7.168 0-11.264-4.096-12.288-7.168-2.048-3.072-3.072-9.216 0-14.336l52.224-83.968 384 0c22.528 0 44.032-12.288 56.32-31.744l193.536-323.584c25.6-44.032-5.12-99.328-56.32-99.328L279.552 144.384l-47.104-81.92C223.232 47.104 205.824 35.84 186.368 35.84L186.368 35.84z"  /></svg>