<svg class="svg-icon" style="width: 1em; height: 1em;vertical-align: middle;fill: currentColor;overflow: hidden;" viewBox="0 0 1024 1024" version="1.1" xmlns="http://www.w3.org/2000/svg"><path d="M939.596884 1023.997455H83.890594A52.760638 52.760638 0 0 1 31.129956 971.236818l29.518814-710.4873a52.760638 52.760638 0 0 1 52.760637-52.421341h797.347257a52.760638 52.760638 0 0 1 52.590989 52.760637l29.518813 709.808707a52.760638 52.760638 0 0 1-53.269582 53.099934zM113.409407 225.293012a35.965451 35.965451 0 0 0-35.795802 35.795802L48.094792 971.576114a35.795802 35.795802 0 0 0 35.795802 35.456506h855.70629a35.626154 35.626154 0 0 0 35.795802-35.795802l-29.518813-709.808707a35.795802 35.795802 0 0 0-35.626154-36.135099z" fill="" /><path d="M681.052794 418.183189a8.652066 8.652066 0 0 1-8.482417-8.482418V179.827254a162.862418 162.862418 0 0 0-325.724837 0v229.873517a8.482418 8.482418 0 0 1-8.482417 8.482418 8.652066 8.652066 0 0 1-8.482418-8.482418V179.827254a179.827254 179.827254 0 0 1 359.654507 0v229.873517a8.482418 8.482418 0 0 1-8.482418 8.482418zM598.434047 648.904948h-158.62121a8.482418 8.482418 0 0 1-8.482417-8.482418 8.652066 8.652066 0 0 1 8.482417-8.482417h158.62121a8.482418 8.482418 0 0 1 8.482417 8.482417 8.482418 8.482418 0 0 1-8.482417 8.482418z" fill="" /></svg>