<svg class="svg-icon" style="width: 1em; height: 1em;vertical-align: middle;fill: currentColor;overflow: hidden;" viewBox="0 0 1024 1024" version="1.1" xmlns="http://www.w3.org/2000/svg"><path d="M512.7 970.2c-61.9 0-121.9-12.1-178.4-36-54.6-23.1-103.6-56.1-145.7-98.2-42.1-42.1-75.1-91.1-98.2-145.7-23.9-56.5-36-116.5-36-178.4s12.1-121.9 36-178.4c23.1-54.6 56.1-103.6 98.2-145.7 42.1-42.1 91.1-75.1 145.7-98.2 56.5-23.9 116.5-36 178.4-36s121.9 12.1 178.4 36c54.6 23.1 103.6 56.1 145.7 98.2 42.1 42.1 75.1 91.1 98.2 145.7 23.9 56.5 36 116.5 36 178.4s-12.1 121.9-36 178.4c-23.1 54.6-56.1 103.6-98.2 145.7-42.1 42.1-91.1 75.1-145.7 98.2-56.5 23.9-116.5 36-178.4 36z m0-896.6C271 73.6 74.4 270.2 74.4 511.9S271 950.2 512.7 950.2 951 753.6 951 511.9 754.4 73.6 512.7 73.6z" fill="#3B4552" /><path d="M515.5 422.8c0.1 5.1 1.2 8.9 3.2 11.4s5.8 4 11.3 4.5v-28.2c-7.4-1.2-12.7-3.5-16-6.7-3.3-3.3-4.9-7.5-4.9-12.8 0-5.6 1.7-10.1 5.2-13.5 3.5-3.4 8.7-5.3 15.7-5.9v-8.9h6.3v8.9c6.9 0.7 11.9 2.7 15 6 3.1 3.3 4.6 7.6 4.6 13.1h-7.6c-0.6-4-1.7-7-3.3-8.9-1.7-1.9-4.6-3.1-8.7-3.4v25.5c2.3 0.6 4.2 1.1 5.7 1.5 1.4 0.4 2.6 0.8 3.6 1.2 0.9 0.4 1.6 0.7 2.3 1.1 0.6 0.4 1.3 0.8 2.2 1.3 2.8 1.9 4.9 4.1 6.2 6.6 1.3 2.5 1.9 5.7 1.9 9.5 0 6.2-1.8 11.1-5.3 14.5-3.6 3.4-9 5.4-16.5 6v10.1H530v-10.1c-8.1-0.6-13.9-2.8-17.3-6.7-3.5-3.8-5.2-9.2-5.1-16.1h7.9z m4.2-24.6c1.9 2 5.3 3.5 10.3 4.4v-24.4c-4.5 0.2-7.9 1.4-10 3.6-2.1 2.2-3.2 5-3.2 8.5 0 3.3 1 5.9 2.9 7.9z m27.5 18.6c-2-2.3-5.6-4-10.9-5.2v27.2c4.4-0.1 7.8-1.4 10.2-3.8 2.4-2.4 3.6-5.5 3.6-9.1 0-3.8-1-6.8-2.9-9.1z" fill="#FF960B" /><path d="M532.8 501.9c-51.3 0-93-41.7-93-93s41.7-93 93-93 93 41.7 93 93-41.7 93-93 93z m0-175.9c-45.8 0-83 37.2-83 83s37.2 83 83 83 83-37.2 83-83-37.2-83-83-83z" fill="#3B4552" /><path d="M629 464.3c-2.8 0-5-2.2-5-5s2.2-5 5-5c45.8 0 83-37.2 83-83s-37.2-83-83-83c-20.5 0-40.1 7.5-55.4 21.2-2.1 1.8-5.2 1.7-7.1-0.4s-1.7-5.2 0.4-7.1c17.1-15.3 39.1-23.7 62-23.7 51.3 0 93 41.7 93 93s-41.6 93-92.9 93zM758.9 599.8c-31.2 14.5-55.8 23.4-94 33.4-48.9 12.7-101.6 8.3-101.6 8.3 1.3-0.1 24.5-6.6 32.5-19.7 5.9-9.5 7.8-26.9-32.5-26.7H436.8l-31.6-42.6h-66v-48.9c0-0.5-0.5-1-1-1h-80.5c-0.5 0-1 0.5-1 1v218c0 0.5 0.5 1 1 1h80.5c0.5 0 1-0.5 1-1v-40.2s138.3 62 151.2 65.1c12.9 3.1 61.9 2.7 69.9 0s121.2-43.1 188.6-87.1 47-76.8 10-59.6z" fill="#3B4552" /></svg>