<svg class="svg-icon" style="width: 1em; height: 1em;vertical-align: middle;fill: currentColor;overflow: hidden;" viewBox="0 0 1024 1024" version="1.1" xmlns="http://www.w3.org/2000/svg"><path d="M512 0C230.4 0 0 230.4 0 512s230.4 512 512 512 512-230.4 512-512-230.4-512-512-512z m0 960c-249.6 0-448-198.4-448-448s198.4-448 448-448 448 198.4 448 448-198.4 448-448 448z" fill="#0B70C0" /><path d="M697.6 249.6L518.4 409.6h-12.8L326.4 249.6l-38.4 51.2L448 448H288v64H448v83.2H288v64H448v134.4h128v-134.4h160v-64H576V512h160V448H576l160-147.2z" fill="#0B70C0" /></svg>