<svg class="svg-icon" style="width: 1em; height: 1em;vertical-align: middle;fill: currentColor;overflow: hidden;" viewBox="0 0 1024 1024" version="1.1" xmlns="http://www.w3.org/2000/svg"><path d="M512 1024C229.227 1024 0 794.773 0 512S229.227 0 512 0s512 229.227 512 512-229.227 512-512 512z m0-981.333C252.8 42.667 42.667 252.8 42.667 512 42.667 771.2 252.8 981.333 512 981.333c259.2 0 469.333-210.133 469.333-469.333C981.333 252.8 771.2 42.667 512 42.667z m21.333 768h-42.666V640H320v-42.667h170.667V512H320v-42.667h170.667v-55.317l-0.086 0.085-170.005-169.365 30.165-30.165 161.366 160.746 160.085-160.085 29.888 29.91-168.747 168.767v55.424H704V512H533.333v85.333H704V640H533.333v170.667z" fill="" /></svg>