<svg class="svg-icon" style="width: 1em; height: 1em;vertical-align: middle;fill: currentColor;overflow: hidden;" viewBox="0 0 1024 1024" version="1.1" xmlns="http://www.w3.org/2000/svg"><path d="M479.573333 462.506667m-432.64 0a432.64 432.64 0 1 0 865.28 0 432.64 432.64 0 1 0-865.28 0Z" fill="#FFFFFF" /><path d="M479.573333 462.506667m-358.4 0a358.4 358.4 0 1 0 716.8 0 358.4 358.4 0 1 0-716.8 0Z" fill="#B3D3EF" /><path d="M479.573333 166.4c187.733333 0 342.186667 144.213333 356.693334 328.533333 0.853333-10.24 1.706667-19.626667 1.706666-29.866666 0-197.973333-160.426667-358.4-358.4-358.4s-358.4 160.426667-358.4 358.4c0 10.24 0.853333 19.626667 1.706667 29.866666 14.506667-184.32 168.96-328.533333 356.693333-328.533333z" fill="#6898BC" /><path d="M479.573333 462.506667m-51.2 0a51.2 51.2 0 1 0 102.4 0 51.2 51.2 0 1 0-102.4 0Z" fill="#FFFFFF" /><path d="M949.76 290.133333v135.68c0 75.093333-40.96 108.373333-72.533333 132.266667-31.573333 23.04-68.266667 47.786667-87.04 47.786667-17.92 0-54.613333-23.893333-87.04-47.786667C672.426667 535.04 631.466667 501.76 631.466667 426.666667V290.986667h318.293333z" fill="#EFCF48" /><path d="M577.706667 213.333333h426.666666v76.8h-426.666666zM1004.5696 998.382933h-426.666667v-76.8h426.666667z" fill="#FFFFFF" /><path d="M632.32 921.6V785.92c0-75.093333 40.96-108.373333 72.533333-132.266667 31.573333-23.04 68.266667-47.786667 87.04-47.786666s54.613333 23.893333 87.04 47.786666c31.573333 23.04 72.533333 57.173333 72.533334 132.266667V921.6H632.32zM645.973333 494.933333c-8.533333-17.92-14.506667-40.106667-14.506666-68.266666V290.986667h318.293333V426.666667c0 27.306667-5.973333 49.493333-14.506667 67.413333" fill="#FFFFFF" /><path d="M951.466667 785.92V921.6H632.32V785.92" fill="#EFCF48" /><path d="M949.504 290.5344v55.466667h-317.44v-55.466667z" fill="#C7CAC7" /><path d="M791.04 768.853333c-6.826667 0-12.8-5.973333-12.8-12.8v-44.373333c0-6.826667 5.973333-12.8 12.8-12.8s12.8 5.973333 12.8 12.8v44.373333c0 6.826667-5.973333 12.8-12.8 12.8z" fill="#EFCF48" /><path d="M784.213333 665.6c-2.56 4.266667-0.853333 9.386667 3.413334 11.093333 7.68 4.266667 23.04 12.8 49.493333 32.426667 27.306667 20.48 44.373333 35.84 44.373333 75.946667v75.093333c0 5.12 3.413333 8.533333 8.533334 8.533333s8.533333-3.413333 8.533333-8.533333V785.066667c0-47.786667-21.333333-67.413333-51.2-89.6-27.306667-19.626667-42.666667-29.866667-52.053333-34.133334-3.413333-1.706667-8.533333 0-11.093334 4.266667zM747.52 852.48h-42.666667c-5.12 0-8.533333 3.413333-8.533333 8.533333s3.413333 8.533333 8.533333 8.533334h42.666667c5.12 0 8.533333-3.413333 8.533333-8.533334s-3.413333-8.533333-8.533333-8.533333zM747.52 799.573333h-42.666667c-5.12 0-8.533333 3.413333-8.533333 8.533334s3.413333 8.533333 8.533333 8.533333h42.666667c5.12 0 8.533333-3.413333 8.533333-8.533333s-3.413333-8.533333-8.533333-8.533334zM750.08 746.666667h-42.666667c-5.12 0-8.533333 3.413333-8.533333 8.533333s3.413333 8.533333 8.533333 8.533333h42.666667c5.12 0 8.533333-3.413333 8.533333-8.533333s-4.266667-8.533333-8.533333-8.533333zM794.453333 535.04c-7.68-4.266667-23.04-12.8-49.493333-32.426667-27.306667-20.48-44.373333-35.84-44.373333-75.946666v-75.093334c0-5.12-3.413333-8.533333-8.533334-8.533333s-8.533333 3.413333-8.533333 8.533333V426.666667c0 47.786667 21.333333 67.413333 51.2 89.6 27.306667 19.626667 42.666667 29.866667 52.053333 34.133333 0.853333 0.853333 2.56 0.853333 4.266667 0.853333 3.413333 0 5.973333-1.706667 7.68-4.266666 1.706667-5.12 0-10.24-4.266667-11.946667zM877.226667 343.04h-42.666667c-5.12 0-8.533333 3.413333-8.533333 8.533333s3.413333 8.533333 8.533333 8.533334h42.666667c5.12 0 8.533333-3.413333 8.533333-8.533334s-4.266667-8.533333-8.533333-8.533333zM877.226667 395.093333h-42.666667c-5.12 0-8.533333 3.413333-8.533333 8.533334s3.413333 8.533333 8.533333 8.533333h42.666667c5.12 0 8.533333-3.413333 8.533333-8.533333s-4.266667-8.533333-8.533333-8.533334zM874.666667 448h-42.666667c-5.12 0-8.533333 3.413333-8.533333 8.533333s3.413333 8.533333 8.533333 8.533334h42.666667c5.12 0 8.533333-3.413333 8.533333-8.533334s-3.413333-8.533333-8.533333-8.533333z"  /><path d="M958.293333 426.666667V298.666667h46.08c5.12 0 8.533333-3.413333 8.533334-8.533334v-76.8c0-5.12-3.413333-8.533333-8.533334-8.533333H837.12C756.906667 93.866667 626.346667 21.333333 479.573333 21.333333 236.373333 21.333333 38.4 219.306667 38.4 462.506667s197.973333 441.173333 441.173333 441.173333c50.346667 0 98.986667-8.533333 144.213334-24.746667v33.28h-46.08c-5.12 0-8.533333 3.413333-8.533334 8.533334v76.8c0 5.12 3.413333 8.533333 8.533334 8.533333h426.666666c5.12 0 8.533333-3.413333 8.533334-8.533333v-76.8c0-5.12-3.413333-8.533333-8.533334-8.533334h-45.226666V785.92c0-75.946667-39.253333-111.786667-75.946667-139.093333-29.866667-22.186667-50.346667-34.133333-64-40.96 16.213333-7.68 36.693333-21.333333 63.146667-40.106667 36.693333-28.16 75.946667-63.146667 75.946666-139.093333z m37.546667-204.8v59.733333H586.24v-59.733333h409.6z m-281.6 392.533333l17.92 10.24c-9.386667 5.973333-19.626667 13.653333-31.573333 22.186667-24.746667 17.92-50.346667 40.106667-64.853334 75.093333l-10.24-17.92c-2.56-4.266667-7.68-5.12-11.946666-3.413333-4.266667 2.56-5.12 7.68-3.413334 11.946666l11.946667 20.48c1.706667 2.56 4.266667 4.266667 7.68 4.266667h0.853333c-3.413333 12.8-5.973333 27.306667-5.973333 44.373333-44.373333 20.48-93.013333 31.573333-145.066667 31.573334-192.853333 0-349.866667-157.013333-349.866666-349.866667s157.013333-349.866667 349.866666-349.866667c91.306667 0 174.08 34.986667 236.373334 92.16h-83.626667c0-2.56-1.706667-5.12-4.266667-6.826666-4.266667-2.56-9.386667-0.853333-11.946666 3.413333l-1.706667 2.56h-36.693333c-5.12 0-8.533333 3.413333-8.533334 8.533333v76.8c0 5.12 3.413333 8.533333 8.533334 8.533334H622.933333v128c0 75.946667 39.253333 111.786667 75.946667 139.093333 27.306667 19.626667 47.786667 33.28 64 40.96-5.12 2.56-10.24 5.12-16.213333 9.386667-0.853333-1.706667-1.706667-2.56-3.413334-3.413334l-20.48-11.946666c-4.266667-2.56-9.386667-0.853333-11.946666 3.413333-1.706667 2.56-0.853333 7.68 3.413333 10.24z m-234.666667 272.213333c-233.813333 0-424.106667-190.293333-424.106666-424.106666S245.76 38.4 479.573333 38.4c137.386667 0 259.413333 65.706667 336.213334 166.4h-75.946667c-66.56-67.413333-158.72-109.226667-261.12-109.226667-202.24 0-366.933333 164.693333-366.933333 366.933334s164.693333 366.933333 366.933333 366.933333c51.2 0 99.84-10.24 144.213333-29.866667v61.44c-44.373333 17.066667-93.013333 25.6-143.36 25.6z m516.266667 43.52v59.733334h-409.6v-59.733334H995.84z m-122.026667-269.653333c34.986667 25.6 69.12 56.32 69.12 125.44V913.066667H640.853333V785.92c0-68.266667 34.133333-98.986667 69.12-125.44 54.613333-40.106667 74.24-46.08 81.92-46.08s27.306667 5.973333 81.92 46.08z m-1.706666-109.226667c-54.613333 40.106667-74.24 46.08-81.92 46.08s-27.306667-5.973333-81.92-46.08c-34.133333-25.6-68.266667-56.32-68.266667-124.586666V298.666667h301.226667v128c0 68.266667-34.133333 98.986667-69.12 124.586666z"  /><path d="M881.493333 644.266667c15.36-33.28 26.453333-68.266667 32.426667-105.813334-6.826667 6.826667-13.653333 12.8-21.333333 18.773334-5.973333 26.453333-14.506667 52.053333-25.6 76.8 4.266667 3.413333 9.386667 6.826667 14.506666 10.24zM479.573333 201.386667c5.12 0 8.533333-3.413333 8.533334-8.533334v-23.893333c0-5.12-3.413333-8.533333-8.533334-8.533333s-8.533333 3.413333-8.533333 8.533333v23.893333c0 4.266667 3.413333 8.533333 8.533333 8.533334zM479.573333 736.426667c-5.12 0-8.533333 3.413333-8.533333 8.533333v23.893333c0 5.12 3.413333 8.533333 8.533333 8.533334s8.533333-3.413333 8.533334-8.533334v-23.893333c0-4.266667-4.266667-8.533333-8.533334-8.533333zM211.626667 462.506667c0-5.12-3.413333-8.533333-8.533334-8.533334H179.2c-5.12 0-8.533333 3.413333-8.533333 8.533334s3.413333 8.533333 8.533333 8.533333h23.893333c5.12 0 8.533333-4.266667 8.533334-8.533333zM333.653333 233.813333c1.706667 2.56 4.266667 4.266667 7.68 4.266667 1.706667 0 2.56 0 4.266667-0.853333 4.266667-2.56 5.12-7.68 3.413333-11.946667L337.066667 204.8c-2.56-4.266667-7.68-5.12-11.946667-3.413333-4.266667 2.56-5.12 7.68-3.413333 11.946666l11.946666 20.48zM232.106667 593.92L211.626667 605.866667c-4.266667 2.56-5.12 7.68-3.413334 11.946666 1.706667 2.56 4.266667 4.266667 7.68 4.266667 1.706667 0 2.56 0 4.266667-0.853333l20.48-11.946667c4.266667-2.56 5.12-7.68 3.413333-11.946667-2.56-4.266667-7.68-5.973333-11.946666-3.413333zM244.053333 323.413333l-20.48-11.946666c-4.266667-2.56-9.386667-0.853333-11.946666 3.413333-2.56 4.266667-0.853333 9.386667 3.413333 11.946667l20.48 11.946666c1.706667 0.853333 2.56 0.853333 4.266667 0.853334 2.56 0 5.973333-1.706667 7.68-4.266667 2.56-4.266667 0.853333-9.386667-3.413334-11.946667zM339.626667 697.173333c-4.266667-2.56-9.386667-0.853333-11.946667 3.413334L315.733333 721.066667c-2.56 4.266667-0.853333 9.386667 3.413334 11.946666 1.706667 0.853333 2.56 0.853333 4.266666 0.853334 2.56 0 5.973333-1.706667 7.68-4.266667l11.946667-20.48c2.56-4.266667 0.853333-9.386667-3.413333-11.946667zM479.573333 402.773333c-13.653333 0-25.6 4.266667-35.84 11.946667L351.573333 322.56c-3.413333-3.413333-8.533333-3.413333-11.946666 0-3.413333 3.413333-3.413333 8.533333 0 11.946667L431.786667 426.666667c-7.68 10.24-11.946667 22.186667-11.946667 35.84 0 29.866667 22.186667 54.613333 51.2 58.88v139.093333c0 5.12 3.413333 8.533333 8.533333 8.533333s8.533333-3.413333 8.533334-8.533333V521.386667c29.013333-4.266667 51.2-29.013333 51.2-58.88 0-32.426667-27.306667-59.733333-59.733334-59.733334z m8.533334 101.546667c-2.56 0.853333-5.973333 0.853333-8.533334 0.853333s-5.973333 0-8.533333-0.853333c-19.626667-4.266667-34.133333-21.333333-34.133333-41.813333 0-8.533333 2.56-17.066667 6.826666-23.893334 3.413333-5.12 7.68-8.533333 11.946667-11.946666 6.826667-4.266667 14.506667-6.826667 23.04-6.826667 23.893333 0 42.666667 18.773333 42.666667 42.666667 0.853333 20.48-13.653333 38.4-33.28 41.813333z"  /></svg>